<svg xmlns="http://www.w3.org/2000/svg" xmlns:xlink="http://www.w3.org/1999/xlink" xmlns:ev="http://www.w3.org/2001/xml-events" width="1589.8425196850396" height="1030" viewBox="0 0 1589.8425196850396 1030"><defs/><g transform="translate(5,5)" id="page1"><rect x="0" y="0" width="1580" height="1020" fill="#ffffff" stroke="#808080"/><g transform="translate(254.25,451.61)" id="shape1"><path fill="#e06772" d="M0,0L177.1,0L177.1,87L0,87L0,0Z" stroke="#191919" stroke-width="5.333333333333"/><text xmlns="http://www.w3.org/2000/svg" xml:space="preserve"><tspan x="25.743458437125497" y="50.34565618195243" textLength="125.61250257492065" style="fill:rgb(0, 0, 0);font-family:Arial;font-size:15pt;font-style: italic;font-weight:bold;">Location Log</tspan></text></g><g transform="translate(777.21,225.25)" id="shape2"><path fill="#e06772" d="M0,0L151.9,0L151.9,74.7L0,74.7L0,0Z" stroke="#191919" stroke-width="5.333333333333"/><text xmlns="http://www.w3.org/2000/svg" xml:space="preserve"><tspan x="18.69729598832923" y="44.16875796109043" textLength="114.55000019073486" style="fill:rgb(0, 0, 0);font-family:Arial;font-size:15pt;font-style: italic;font-weight:bold;">IOT Devices</tspan></text></g><g transform="translate(254.25,218.63)" id="shape3"><path fill="#e06772" d="M0,0L178.7,0L178.7,87.9L0,87.9L0,0Z" stroke="#191919" stroke-width="5.333333333333"/><text xmlns="http://www.w3.org/2000/svg" xml:space="preserve"><tspan x="55.84211824221141" y="50.79292439979193" textLength="67.06250095367432" style="fill:rgb(0, 0, 0);font-family:Arial;font-size:15pt;font-style: italic;font-weight:bold;">Tourist</tspan></text></g><g transform="translate(268.83,686.96)" id="shape4"><path fill="#e06772" d="M0,0L150.2,0L150.2,84.2L0,84.2L0,0Z" stroke="#191919" stroke-width="5.333333333333"/><text xmlns="http://www.w3.org/2000/svg" xml:space="preserve"><tspan x="18.40258647974673" y="48.93970118441893" textLength="113.41250133514404" style="fill:rgb(0, 0, 0);font-family:Arial;font-size:15pt;font-style: italic;font-weight:bold;">Safety Zone</tspan></text></g><g transform="translate(1183.90,203.80)" id="shape5"><path fill="#e06772" d="M0,0L131.1,0L131.1,64.5L0,64.5L0,0Z" stroke="#191919" stroke-width="5.333333333333"/><text xmlns="http://www.w3.org/2000/svg" xml:space="preserve"><tspan x="34.4469692244365" y="39.06640562068793" textLength="62.250000953674316" style="fill:rgb(0, 0, 0);font-family:Arial;font-size:15pt;font-style: italic;font-weight:bold;">Admin</tspan></text></g><g transform="translate(483.00,132.52)" id="shape6"><path fill="#8a5fbf" d="M0,37C0,16.5,23.3,0,52.2,0C81,0,104.4,16.5,104.4,37C104.4,57.5,81,74.1,52.2,74.1C23.3,74.1,0,57.5,0,37Z" stroke="#191919" stroke-width="5.333333333333"/><text xmlns="http://www.w3.org/2000/svg" xml:space="preserve"><tspan x="15.468988911589364" y="42.26570813274638" textLength="73.52500343322754" style="fill:rgb(0, 0, 0);font-family:Arial;font-size:12pt;font-weight:bold;">Tourist ID</tspan></text></g><g transform="translate(409.90,55.85)" id="shape7"><path fill="#22a0d7" d="M0,31.4C0,14,19.7,0,44.1,0C68.5,0,88.3,14,88.3,31.4C88.3,48.7,68.5,62.8,44.1,62.8C19.7,62.8,0,48.7,0,31.4Z" stroke="#191919" stroke-width="5.333333333333"/><text xmlns="http://www.w3.org/2000/svg" xml:space="preserve"><tspan x="22.366036610956456" y="36.62351743182988" textLength="43.60000133514404" style="fill:rgb(0, 0, 0);font-family:Arial;font-size:12pt;font-weight:bold;">Name</tspan></text></g><g transform="translate(119.68,64.28)" id="shape8"><path fill="#22a0d7" d="M0,38.3C0,17.1,24.8,0,55.5,0C86.2,0,111.1,17.1,111.1,38.3C111.1,59.4,86.2,76.6,55.5,76.6C24.8,76.6,0,59.4,0,38.3Z" stroke="#191919" stroke-width="5.333333333333"/><text xmlns="http://www.w3.org/2000/svg" xml:space="preserve"><tspan x="7.081757396352998" y="43.519696520891884" textLength="96.98750448226929" style="fill:rgb(0, 0, 0);font-family:Arial;font-size:12pt;font-weight:bold;">Safety Score</tspan></text></g><g transform="translate(111.38,166.52)" id="shape9"><path fill="#22a0d7" d="M0,37C0,16.5,24.8,0,55.5,0C86.2,0,111.1,16.5,111.1,37C111.1,57.5,86.2,74,55.5,74C24.8,74,0,57.5,0,37Z" stroke="#191919" stroke-width="5.333333333333"/><text xmlns="http://www.w3.org/2000/svg" xml:space="preserve"><tspan x="8.894257396352998" y="42.242373303926385" textLength="93.37500429153442" style="fill:rgb(0, 0, 0);font-family:Arial;font-size:12pt;font-weight:bold;">Contact Info</tspan></text></g><g transform="translate(274.32,24.92)" id="shape10"><path fill="#22a0d7" d="M0,31.5C0,14.1,25.2,0,56.4,0C87.6,0,112.9,14.1,112.9,31.5C112.9,49,87.6,63.1,56.4,63.1C25.2,63.1,0,49,0,31.5Z" stroke="#191919" stroke-width="5.333333333333"/><text xmlns="http://www.w3.org/2000/svg" xml:space="preserve"><tspan x="18.695389537780592" y="36.79699709852638" textLength="75.57500457763672" style="fill:rgb(0, 0, 0);font-family:Arial;font-size:12pt;font-weight:bold;">Language</tspan></text></g><g transform="translate(1083.33,97.96)" id="shape11"><path fill="#22a0d7" d="M0,22.9C0,10.2,27.7,0,61.9,0C96.1,0,123.9,10.2,123.9,22.9C123.9,35.6,96.1,45.9,61.9,45.9C27.7,45.9,0,35.6,0,22.9Z" stroke="#191919" stroke-width="5.333333333333"/><text xmlns="http://www.w3.org/2000/svg" xml:space="preserve"><tspan x="17.482964952325645" y="28.191817917303887" textLength="88.96250343322754" style="fill:rgb(0, 0, 0);font-family:Arial;font-size:12pt;font-weight:bold;">Department</tspan></text></g><g transform="translate(1369.85,109.04)" id="shape12"><path fill="#22a0d7" d="M0,22.9C0,10.2,16.8,0,37.6,0C58.5,0,75.3,10.2,75.3,22.9C75.3,35.6,58.5,45.9,37.6,45.9C16.8,45.9,0,35.6,0,22.9Z" stroke="#191919" stroke-width="5.333333333333"/><text xmlns="http://www.w3.org/2000/svg" xml:space="preserve"><tspan x="20.34337532410327" y="28.191817917303887" textLength="34.687501430511475" style="fill:rgb(0, 0, 0);font-family:Arial;font-size:12pt;font-weight:bold;">Role</tspan></text></g><g transform="translate(1243.52,64.28)" id="shape13"><path fill="#8a5fbf" d="M0,22.9C0,10.2,24,0,53.6,0C83.3,0,107.3,10.2,107.3,22.9C107.3,35.6,83.3,45.9,53.6,45.9C24,45.9,0,35.6,0,22.9Z" stroke="#191919" stroke-width="5.333333333333"/><text xmlns="http://www.w3.org/2000/svg" xml:space="preserve"><tspan x="18.52764526307586" y="28.191817917303887" textLength="70.26250219345093" style="fill:rgb(0, 0, 0);font-family:Arial;font-size:12pt;font-weight:bold;">Admin ID</tspan></text></g><g transform="translate(119.68,836.65)" id="shape14"><path fill="#8a5fbf" d="M0,30C0,13.4,21.1,0,47.2,0C73.3,0,94.5,13.4,94.5,30C94.5,46.5,73.3,60,47.2,60C21.1,60,0,46.5,0,30Z" stroke="#191919" stroke-width="5.333333333333"/><text xmlns="http://www.w3.org/2000/svg" xml:space="preserve"><tspan x="17.926437897838092" y="35.21709561061488" textLength="58.68750286102295" style="fill:rgb(0, 0, 0);font-family:Arial;font-size:12pt;font-weight:bold;">Zone ID</tspan></text></g><g transform="translate(430.77,857.84)" id="shape15"><path fill="#22a0d7" d="M0,30C0,13.4,21.1,0,47.2,0C73.3,0,94.5,13.4,94.5,30C94.5,46.5,73.3,60,47.2,60C21.1,60,0,46.5,0,30Z" stroke="#191919" stroke-width="5.333333333333"/><text xmlns="http://www.w3.org/2000/svg" xml:space="preserve"><tspan x="7.851437611735797" y="35.21709561061488" textLength="78.83750486373901" style="fill:rgb(0, 0, 0);font-family:Arial;font-size:12pt;font-weight:bold;">Zone Type</tspan></text></g><g transform="translate(344.17,935.52)" id="shape16"><path fill="#22a0d7" d="M0,30C0,13.4,22,0,49.1,0C76.3,0,98.3,13.4,98.3,30C98.3,46.5,76.3,60,49.1,60C22,60,0,46.5,0,30Z" stroke="#191919" stroke-width="5.333333333333"/><text xmlns="http://www.w3.org/2000/svg" xml:space="preserve"><tspan x="9.593049745013431" y="35.21709561061488" textLength="79.18750429153442" style="fill:rgb(0, 0, 0);font-family:Arial;font-size:12pt;font-weight:bold;">Risk Level</tspan></text></g><g transform="translate(186.74,909.58)" id="shape17"><path fill="#22a0d7" d="M0,37.8C0,16.9,29.3,0,65.4,0C101.6,0,130.9,16.9,130.9,37.8C130.9,58.8,101.6,75.7,65.4,75.7C29.3,75.7,0,58.8,0,37.8Z" stroke="#191919" stroke-width="5.333333333333"/><text xmlns="http://www.w3.org/2000/svg" xml:space="preserve"><tspan x="29.023450173975775" y="33.48167283296434" textLength="77.3875036239624" style="fill:rgb(0, 0, 0);font-family:Arial;font-size:12pt;font-weight:bold;">Geofence </tspan><tspan x="28.148450173975775" y="52.68167282104341" textLength="74.7000036239624" style="fill:rgb(0, 0, 0);font-family:Arial;font-size:12pt;font-weight:bold;">Boundary</tspan></text></g><g transform="translate(897.58,109.04)" id="shape18"><path fill="#22a0d7" d="M0,35.7C0,16,27.7,0,61.9,0C96.1,0,123.9,16,123.9,35.7C123.9,55.5,96.1,71.5,61.9,71.5C27.7,71.5,0,55.5,0,35.7Z" stroke="#191919" stroke-width="5.333333333333"/><text xmlns="http://www.w3.org/2000/svg" xml:space="preserve"><tspan x="8.145465333795372" y="40.96505008696038" textLength="107.63750505447388" style="fill:rgb(0, 0, 0);font-family:Arial;font-size:12pt;font-weight:bold;">Pairing Status</tspan></text></g><g transform="translate(777.21,48.96)" id="shape19"><path fill="#22a0d7" d="M0,38.3C0,17.1,26,0,58.1,0C90.2,0,116.2,17.1,116.2,38.3C116.2,59.4,90.2,76.6,58.1,76.6C26,76.6,0,59.4,0,38.3Z" stroke="#191919" stroke-width="5.333333333333"/><text xmlns="http://www.w3.org/2000/svg" xml:space="preserve"><tspan x="12.02474030430114" y="43.519696520891884" textLength="92.22500514984131" style="fill:rgb(0, 0, 0);font-family:Arial;font-size:12pt;font-weight:bold;">Device Type</tspan></text></g><g transform="translate(667.35,131.28)" id="shape20"><path fill="#8a5fbf" d="M0,37.6C0,16.8,29.1,0,65.1,0C101.1,0,130.3,16.8,130.3,37.6C130.3,58.4,101.1,75.3,65.1,75.3C29.1,75.3,0,58.4,0,37.6Z" stroke="#191919" stroke-width="5.333333333333"/><text xmlns="http://www.w3.org/2000/svg" xml:space="preserve"><tspan x="29.127318634944274" y="42.881034912408886" textLength="72.07500314712524" style="fill:rgb(0, 0, 0);font-family:Arial;font-size:12pt;font-weight:bold;">Device ID</tspan></text></g><g transform="translate(60.01,514.01)" id="shape21"><path fill="#22a0d7" d="M0,23.6C0,10.5,25.1,0,56.2,0C87.2,0,112.4,10.5,112.4,23.6C112.4,36.6,87.2,47.2,56.2,47.2C25.1,47.2,0,36.6,0,23.6Z" stroke="#191919" stroke-width="5.333333333333"/><text xmlns="http://www.w3.org/2000/svg" xml:space="preserve"><tspan x="17.54562798028914" y="28.830479525786888" textLength="77.33750438690186" style="fill:rgb(0, 0, 0);font-family:Arial;font-size:12pt;font-weight:bold;">Longitude</tspan></text></g><g transform="translate(60.01,438.73)" id="shape22"><path fill="#22a0d7" d="M0,23.6C0,10.5,22,0,49.1,0C76.3,0,98.3,10.5,98.3,23.6C98.3,36.6,76.3,47.2,49.1,47.2C22,47.2,0,36.6,0,23.6Z" stroke="#191919" stroke-width="5.333333333333"/><text xmlns="http://www.w3.org/2000/svg" xml:space="preserve"><tspan x="18.068049649646" y="28.830479525786888" textLength="62.25000333786011" style="fill:rgb(0, 0, 0);font-family:Arial;font-size:12pt;font-weight:bold;">Latitude</tspan></text></g><g transform="translate(511.28,514.01)" id="shape23"><path fill="#8a5fbf" d="M0,31.2C0,14,22,0,49.3,0C76.5,0,98.6,14,98.6,31.2C98.6,48.5,76.5,62.5,49.3,62.5C22,62.5,0,48.5,0,31.2Z" stroke="#191919" stroke-width="5.333333333333"/><text xmlns="http://www.w3.org/2000/svg" xml:space="preserve"><tspan x="5.768176722525077" y="36.475756063231884" textLength="87.15000438690186" style="fill:rgb(0, 0, 0);font-family:Arial;font-size:12pt;font-weight:bold;">Location ID</tspan></text></g><g transform="translate(509.68,431.67)" id="shape24"><path fill="#22a0d7" d="M0,22.9C0,10.2,27.1,0,60.6,0C94.2,0,121.3,10.2,121.3,22.9C121.3,35.6,94.2,45.9,60.6,45.9C27.1,45.9,0,35.6,0,22.9Z" stroke="#191919" stroke-width="5.333333333333"/><text xmlns="http://www.w3.org/2000/svg" xml:space="preserve"><tspan x="18.58022340298414" y="28.191817917303887" textLength="84.22500324249268" style="fill:rgb(0, 0, 0);font-family:Arial;font-size:12pt;font-weight:bold;">Timestamp</tspan></text></g><g transform="translate(483.00,169.58)" id="shape25"><path stroke="#191919" stroke-width="5.333333333333" d="M0,0L-139.4,49" fill="none"/></g><g transform="translate(454.07,118.70)" id="shape26"><path stroke="#191919" stroke-width="5.333333333333" d="M0,0L-110.5,99.9" fill="none"/></g><g transform="translate(330.81,88.11)" id="shape27"><path stroke="#191919" stroke-width="5.333333333333" d="M0,0L12.8,130.5" fill="none"/></g><g transform="translate(230.84,102.60)" id="shape28"><path stroke="#191919" stroke-width="5.333333333333" d="M0,0L112.7,116" fill="none"/></g><g transform="translate(343.63,218.63)" id="shape29"><path stroke="#191919" stroke-width="5.333333333333" d="M0,0L-121.1,-15.1" fill="none"/></g><g transform="translate(1249.47,203.80)" id="shape30"><path stroke="#191919" stroke-width="5.333333333333" d="M0,0L-104.2,-59.9" fill="none"/></g><g transform="translate(1245.02,203.80)" id="shape31"><path stroke="#191919" stroke-width="5.333333333333" d="M0,0L162.5,-48.8" fill="none"/></g><g transform="translate(1249.47,203.80)" id="shape32"><path stroke="#191919" stroke-width="5.333333333333" d="M0,0L47.7,-93.6" fill="none"/></g><g transform="translate(214.23,866.67)" id="shape33"><path stroke="#191919" stroke-width="5.333333333333" d="M0,0L129.7,-95.5" fill="none"/></g><g transform="translate(393.36,935.52)" id="shape34"><path stroke="#191919" stroke-width="5.333333333333" d="M0,0L-51.9,-164.3" fill="none"/></g><g transform="translate(252.23,909.58)" id="shape35"><path stroke="#191919" stroke-width="5.333333333333" d="M0,0L91.7,-138.4" fill="none"/></g><g transform="translate(511.28,545.28)" id="shape36"><path stroke="#191919" stroke-width="5.333333333333" d="M0,0L-80,-50.2" fill="none"/></g><g transform="translate(158.40,462.36)" id="shape37"><path stroke="#191919" stroke-width="5.333333333333" d="M0,0L95.8,32.7" fill="none"/></g><g transform="translate(172.46,537.64)" id="shape38"><path stroke="#191919" stroke-width="5.333333333333" d="M0,0L81.7,-42.5" fill="none"/></g><g transform="translate(431.36,494.46)" id="shape39"><path stroke="#191919" stroke-width="5.333333333333" d="M0,0L78.3,-39.9" fill="none"/></g><g transform="translate(782.66,193.04)" id="shape40"><path stroke="#191919" stroke-width="5.333333333333" d="M0,0L70.5,32.2" fill="none"/></g><g transform="translate(835.35,125.60)" id="shape41"><path stroke="#191919" stroke-width="5.333333333333" d="M0,0L17.8,99.6" fill="none"/></g><g transform="translate(959.55,180.57)" id="shape42"><path stroke="#191919" stroke-width="5.333333333333" d="M0,0L-106.4,44.6" fill="none"/></g><g transform="translate(1201.07,646.09)" id="shape43"><text xmlns="http://www.w3.org/2000/svg" xml:space="preserve"><tspan x="13.603623240122001" y="18.80000001192093" textLength="11.125" style="fill:rgb(255, 0, 0);font-family:Arial;font-size:15pt;font-style: italic;font-weight:bold;">1</tspan></text></g><g transform="translate(419.06,641.03)" id="shape44"><text xmlns="http://www.w3.org/2000/svg" xml:space="preserve"><tspan x="11.974999904632568" y="18.80000001192093" textLength="30.03749990463257" style="fill:rgb(255, 0, 0);font-family:Arial;font-size:15pt;font-style: italic;font-weight:bold;">1..*</tspan></text></g><g transform="translate(230.84,102.60)" id="shape45"><path stroke="#191919" stroke-width="5.333333333333" d="" fill="none"/></g><g transform="translate(735.62,696.84)" id="shape46"><path fill="#e06772" d="M0,0L131.1,0L131.1,64.5L0,64.5L0,0Z" stroke="#191919" stroke-width="5.333333333333"/><text xmlns="http://www.w3.org/2000/svg" xml:space="preserve"><tspan x="42.771969987375954" y="39.06640562068793" textLength="45.58749961853027" style="fill:rgb(0, 0, 0);font-family:Arial;font-size:15pt;font-style: italic;font-weight:bold;">Alert</tspan></text></g><g transform="translate(620.77,850.84)" id="shape47"><path fill="#8a5fbf" d="M0,29.3C0,13.1,19.1,0,42.8,0C66.4,0,85.6,13.1,85.6,29.3C85.6,45.5,66.4,58.7,42.8,58.7C19.1,58.7,0,45.5,0,29.3Z" stroke="#191919" stroke-width="5.333333333333"/><text xmlns="http://www.w3.org/2000/svg" xml:space="preserve"><tspan x="14.352347529496093" y="34.56524900569038" textLength="56.95000171661377" style="fill:rgb(0, 0, 0);font-family:Arial;font-size:12pt;font-weight:bold;">Alert ID</tspan></text></g><g transform="translate(682.77,905.77)" id="shape48"><path fill="#22a0d7" d="M0,29.3C0,13.1,22.2,0,49.7,0C77.2,0,99.5,13.1,99.5,29.3C99.5,45.5,77.2,58.7,49.7,58.7C22.2,58.7,0,45.5,0,29.3Z" stroke="#191919" stroke-width="5.333333333333"/><text xmlns="http://www.w3.org/2000/svg" xml:space="preserve"><tspan x="11.200611423750296" y="34.56524900569038" textLength="77.10000371932983" style="fill:rgb(0, 0, 0);font-family:Arial;font-size:12pt;font-weight:bold;">Alert Type</tspan></text></g><g transform="translate(889.76,866.15)" id="shape49"><path fill="#22a0d7" d="M0,21.7C0,9.7,16.3,0,36.4,0C56.5,0,72.8,9.7,72.8,21.7C72.8,33.7,56.5,43.4,36.4,43.4C16.3,43.4,0,33.7,0,21.7Z" stroke="#191919" stroke-width="5.333333333333"/><text xmlns="http://www.w3.org/2000/svg" xml:space="preserve"><tspan x="11.953134537701224" y="26.914494700338384" textLength="48.925002098083496" style="fill:rgb(0, 0, 0);font-family:Arial;font-size:12pt;font-weight:bold;">Status</tspan></text></g><g transform="translate(792.65,909.58)" id="shape50"><path fill="#22a0d7" d="M0,27.4C0,12.2,29.4,0,65.8,0C102.1,0,131.6,12.2,131.6,27.4C131.6,42.6,102.1,54.9,65.8,54.9C29.4,54.9,0,42.6,0,27.4Z" stroke="#191919" stroke-width="5.333333333333"/><text xmlns="http://www.w3.org/2000/svg" xml:space="preserve"><tspan x="24.428689791085006" y="32.66244917668389" textLength="82.75000381469727" style="fill:rgb(0, 0, 0);font-family:Arial;font-size:12pt;font-weight:bold;">Created_at</tspan></text></g><g transform="translate(663.60,850.84)" id="shape51"><path stroke="#191919" stroke-width="5.333333333333" d="M0,0L137.5,-89.5" fill="none"/></g><g transform="translate(1201.36,686.96)" id="shape52"><path fill="#e06772" d="M0,0L131.1,0L131.1,64.5L0,64.5L0,0Z" stroke="#191919" stroke-width="5.333333333333"/><text xmlns="http://www.w3.org/2000/svg" xml:space="preserve"><tspan x="36.09697075031541" y="27.06640562068793" textLength="64.51250076293945" style="fill:rgb(0, 0, 0);font-family:Arial;font-size:15pt;font-style: italic;font-weight:bold;">Police </tspan><tspan x="29.984469605906227" y="51.06640675317618" textLength="71.17500019073486" style="fill:rgb(0, 0, 0);font-family:Arial;font-size:15pt;font-style: italic;font-weight:bold;">Rescue</tspan></text></g><g transform="translate(1087.63,810.29)" id="shape53"><path fill="#8a5fbf" d="M0,37.6C0,16.8,29.4,0,65.8,0C102.1,0,131.6,16.8,131.6,37.6C131.6,58.4,102.1,75.3,65.8,75.3C29.4,75.3,0,58.4,0,37.6Z" stroke="#191919" stroke-width="5.333333333333"/><text xmlns="http://www.w3.org/2000/svg" xml:space="preserve"><tspan x="13.766190363289596" y="42.881034912408886" textLength="104.06250476837158" style="fill:rgb(0, 0, 0);font-family:Arial;font-size:12pt;font-weight:bold;">Responder ID</tspan></text></g><g transform="translate(1348.23,810.29)" id="shape54"><path fill="#22a0d7" d="M0,22.9C0,10.2,27.1,0,60.6,0C94.2,0,121.3,10.2,121.3,22.9C121.3,35.6,94.2,45.9,60.6,45.9C27.1,45.9,0,35.6,0,22.9Z" stroke="#191919" stroke-width="5.333333333333"/><text xmlns="http://www.w3.org/2000/svg" xml:space="preserve"><tspan x="21.10522397518873" y="28.191817917303887" textLength="79.17500257492065" style="fill:rgb(0, 0, 0);font-family:Arial;font-size:12pt;font-weight:bold;">Unit Name</tspan></text></g><g transform="translate(1219.24,880.08)" id="shape55"><path fill="#22a0d7" d="M0,32.5C0,14.5,29.4,0,65.8,0C102.1,0,131.6,14.5,131.6,32.5C131.6,50.5,102.1,65.1,65.8,65.1C29.4,65.1,0,50.5,0,32.5Z" stroke="#191919" stroke-width="5.333333333333"/><text xmlns="http://www.w3.org/2000/svg" xml:space="preserve"><tspan x="36.00369055402446" y="28.17174204454784" textLength="64.03750276565552" style="fill:rgb(0, 0, 0);font-family:Arial;font-size:12pt;font-weight:bold;">Contact </tspan><tspan x="35.553689791085006" y="47.37174203262691" textLength="60.487502098083496" style="fill:rgb(0, 0, 0);font-family:Arial;font-size:12pt;font-weight:bold;">Number</tspan></text></g><g transform="translate(1153.43,810.29)" id="shape56"><path stroke="#191919" stroke-width="5.333333333333" d="M0,0L113.5,-58.8" fill="none"/></g><g transform="translate(1408.93,810.29)" id="shape57"><path stroke="#191919" stroke-width="5.333333333333" d="M0,0L-142,-58.8" fill="none"/></g><g transform="translate(1285.04,880.08)" id="shape58"><path stroke="#191919" stroke-width="5.333333333333" d="M0,0L-18.2,-128.6" fill="none"/></g><g transform="translate(1083.33,446.43)" id="shape59"><path fill="#e06772" d="M0,0L131.1,0L131.1,64.5L0,64.5L0,0Z" stroke="#191919" stroke-width="5.333333333333"/><text xmlns="http://www.w3.org/2000/svg" xml:space="preserve"><tspan x="29.971968842966774" y="27.06640562068793" textLength="76.7625002861023" style="fill:rgb(0, 0, 0);font-family:Arial;font-size:15pt;font-style: italic;font-weight:bold;">Service </tspan><tspan x="24.971968842966774" y="51.06640675317618" textLength="81.18750095367432" style="fill:rgb(0, 0, 0);font-family:Arial;font-size:15pt;font-style: italic;font-weight:bold;">Provider</tspan></text></g><g transform="translate(1341.85,364.65)" id="shape60"><path fill="#22a0d7" d="M0,24.9C0,11.1,28.6,0,63.8,0C99.1,0,127.7,11.1,127.7,24.9C127.7,38.6,99.1,49.8,63.8,49.8C28.6,49.8,0,38.6,0,24.9Z" stroke="#191919" stroke-width="5.333333333333"/><text xmlns="http://www.w3.org/2000/svg" xml:space="preserve"><tspan x="15.099578039277091" y="30.107802742752384" textLength="97.57500553131104" style="fill:rgb(0, 0, 0);font-family:Arial;font-size:12pt;font-weight:bold;">Service Type</tspan></text></g><g transform="translate(1406.60,431.67)" id="shape61"><path fill="#8a5fbf" d="M0,23.6C0,10.5,27.1,0,60.6,0C94.2,0,121.3,10.5,121.3,23.6C121.3,36.6,94.2,47.2,60.6,47.2C27.1,47.2,0,36.6,0,23.6Z" stroke="#191919" stroke-width="5.333333333333"/><text xmlns="http://www.w3.org/2000/svg" xml:space="preserve"><tspan x="17.98022397518873" y="28.830479525786888" textLength="85.41250371932983" style="fill:rgb(0, 0, 0);font-family:Arial;font-size:12pt;font-weight:bold;">Provider ID</tspan></text></g><g transform="translate(1373.38,498.68)" id="shape62"><path fill="#22a0d7" d="M0,31.2C0,14,34.6,0,77.3,0C119.9,0,154.6,14,154.6,31.2C154.6,48.5,119.9,62.5,77.3,62.5C34.6,62.5,0,48.5,0,31.2Z" stroke="#191919" stroke-width="5.333333333333"/><text xmlns="http://www.w3.org/2000/svg" xml:space="preserve"><tspan x="5.228363806683575" y="36.49441882758088" textLength="144.1375069618225" style="fill:rgb(0, 0, 0);font-family:Arial;font-size:12pt;font-weight:bold;">Verificatiion Status</tspan></text></g><g transform="translate(1329.23,588.03)" id="shape63"><path fill="#22a0d7" d="M0,23.6C0,10.5,29.4,0,65.8,0C102.1,0,131.6,10.5,131.6,23.6C131.6,36.6,102.1,47.2,65.8,47.2C29.4,47.2,0,36.6,0,23.6Z" stroke="#191919" stroke-width="5.333333333333"/><text xmlns="http://www.w3.org/2000/svg" xml:space="preserve"><tspan x="19.116189791085006" y="28.830479525786888" textLength="93.37500429153442" style="fill:rgb(0, 0, 0);font-family:Arial;font-size:12pt;font-weight:bold;">Contact Info</tspan></text></g><g transform="translate(1341.85,389.56)" id="shape64"><path stroke="#191919" stroke-width="5.333333333333" d="M0,0L-127.4,89.1" fill="none"/></g><g transform="translate(1406.60,455.30)" id="shape65"><path stroke="#191919" stroke-width="5.333333333333" d="M0,0L-192.2,23.3" fill="none"/></g><g transform="translate(1373.38,529.97)" id="shape66"><path stroke="#191919" stroke-width="5.333333333333" d="M0,0L-159,-51.3" fill="none"/></g><g transform="translate(1329.23,611.66)" id="shape67"><path stroke="#191919" stroke-width="5.333333333333" d="M0,0L-114.8,-133" fill="none"/></g><g transform="translate(539.54,233.42)" id="shape68"><path fill="#bec905" d="M0,29.1L65.5,0L131.1,29.1L65.5,58.3L0,29.1Z" stroke="#191919" stroke-width="5.333333333333"/><text xmlns="http://www.w3.org/2000/svg" xml:space="preserve"><tspan x="42.72197075031541" y="33.99964974285146" textLength="45.68749952316284" style="fill:rgb(0, 0, 0);font-family:Arial;font-size:14pt;font-weight:bold;">Pairs</tspan></text></g><g transform="translate(735.62,384.87)" id="shape69"><path fill="#bec905" d="M0,29.1L65.5,0L131.1,29.1L65.5,58.3L0,29.1Z" stroke="#191919" stroke-width="5.333333333333"/><text xmlns="http://www.w3.org/2000/svg" xml:space="preserve"><tspan x="26.12197036884568" y="33.99964974285146" textLength="78.90000009536743" style="fill:rgb(0, 0, 0);font-family:Arial;font-size:14pt;font-weight:bold;">Provides</tspan></text></g><g transform="translate(848.47,555.02)" id="shape70"><path fill="#bec905" d="M0,29.1L65.5,0L131.1,29.1L65.5,58.3L0,29.1Z" stroke="#191919" stroke-width="5.333333333333"/><text xmlns="http://www.w3.org/2000/svg" xml:space="preserve"><tspan x="28.721968842966774" y="33.99964974285146" textLength="73.7000002861023" style="fill:rgb(0, 0, 0);font-family:Arial;font-size:14pt;font-weight:bold;">Updates</tspan></text></g><g transform="translate(934.09,699.91)" id="shape71"><path fill="#bec905" d="M0,29.1L65.5,0L131.1,29.1L65.5,58.3L0,29.1Z" stroke="#191919" stroke-width="5.333333333333"/><text xmlns="http://www.w3.org/2000/svg" xml:space="preserve"><tspan x="29.234469605906227" y="33.99964974285146" textLength="72.66250038146973" style="fill:rgb(0, 0, 0);font-family:Arial;font-size:14pt;font-weight:bold;">Handles</tspan></text></g><g transform="translate(278.10,340.41)" id="shape72"><path fill="#bec905" d="M0,29.1L65.5,0L131.1,29.1L65.5,58.3L0,29.1Z" stroke="#191919" stroke-width="5.333333333333"/><text xmlns="http://www.w3.org/2000/svg" xml:space="preserve"><tspan x="37.54697151325486" y="33.99964974285146" textLength="56.05000019073486" style="fill:rgb(0, 0, 0);font-family:Arial;font-size:14pt;font-weight:bold;">Sends</tspan></text></g><g transform="translate(1108.26,328.18)" id="shape73"><path fill="#bec905" d="M0,29.1L65.5,0L131.1,29.1L65.5,58.3L0,29.1Z" stroke="#191919" stroke-width="5.333333333333"/><text xmlns="http://www.w3.org/2000/svg" xml:space="preserve"><tspan x="32.334469987375954" y="33.99964974285146" textLength="66.46249961853027" style="fill:rgb(0, 0, 0);font-family:Arial;font-size:14pt;font-weight:bold;">Verifies</tspan></text></g><g transform="translate(268.28,582.28)" id="shape74"><path fill="#bec905" d="M0,29.3L75.3,0L150.7,29.3L75.3,58.7L0,29.3Z" stroke="#191919" stroke-width="5.333333333333"/><text xmlns="http://www.w3.org/2000/svg" xml:space="preserve"><tspan x="25.561752555554676" y="34.184683990211454" textLength="99.65000057220459" style="fill:rgb(0, 0, 0);font-family:Arial;font-size:14pt;font-weight:bold;">Checked In</tspan></text></g><g transform="translate(499.93,699.91)" id="shape75"><path fill="#bec905" d="M0,29.1L65.5,0L131.1,29.1L65.5,58.3L0,29.1Z" stroke="#191919" stroke-width="5.333333333333"/><text xmlns="http://www.w3.org/2000/svg" xml:space="preserve"><tspan x="28.709469987375954" y="33.99964974285146" textLength="73.71250057220459" style="fill:rgb(0, 0, 0);font-family:Arial;font-size:14pt;font-weight:bold;">Triggers</tspan></text></g><g transform="translate(670.68,262.62)" id="shape76"><path stroke="#191919" stroke-width="5.333333333333" d="M0,0L106.5,0" fill="none"/></g><g transform="translate(539.54,262.62)" id="shape77"><path stroke="#191919" stroke-width="5.333333333333" d="M0,0L-105.6,0" fill="none"/></g><g transform="translate(343.67,398.80)" id="shape78"><path stroke="#191919" stroke-width="5.333333333333" d="M0,0L0,52.8" fill="none"/></g><g transform="translate(343.67,340.41)" id="shape79"><path stroke="#191919" stroke-width="5.333333333333" d="M0,0L0,-10.5L-1.2,-10.5L-1.2,-33.5" fill="none"/></g><g transform="translate(343.67,582.28)" id="shape80"><path stroke="#191919" stroke-width="5.333333333333" d="M0,0L0,-43.6" fill="none"/></g><g transform="translate(343.67,641.03)" id="shape81"><path stroke="#191919" stroke-width="5.333333333333" d="M0,0L0,44.9" fill="none"/></g><g transform="translate(343.94,771.24)" id="shape82"><path stroke="#191919" stroke-width="5.333333333333" d="M0,0L134.1,86.6" fill="none"/></g><g transform="translate(801.19,761.37)" id="shape83"><path stroke="#191919" stroke-width="5.333333333333" d="M0,0L-70.6,144.4" fill="none"/></g><g transform="translate(801.19,761.37)" id="shape84"><path stroke="#191919" stroke-width="5.333333333333" d="M0,0L57.2,148.2" fill="none"/></g><g transform="translate(801.19,761.37)" id="shape85"><path stroke="#191919" stroke-width="5.333333333333" d="M0,0L124.9,104.7" fill="none"/></g><g transform="translate(419.06,729.10)" id="shape86"><path stroke="#191919" stroke-width="5.333333333333" d="M0,0L79.9,0" fill="none"/></g><g transform="translate(631.07,729.10)" id="shape87"><path stroke="#191919" stroke-width="5.333333333333" d="M0,0L103.6,0" fill="none"/></g><g transform="translate(1060.38,726.94)" id="shape88"><path stroke="#191919" stroke-width="5.333333333333" d="M0,0L140.9,-7.8" fill="none"/></g><g transform="translate(934.09,729.10)" id="shape89"><path stroke="#191919" stroke-width="5.333333333333" d="M0,0L-67.4,0" fill="none"/></g><g transform="translate(848.47,584.21)" id="shape90"><path stroke="#191919" stroke-width="5.333333333333" d="M0,0L-451.4,102.7" fill="none"/></g><g transform="translate(979.61,584.21)" id="shape91"><path stroke="#191919" stroke-width="5.333333333333" d="M0,0L260.7,102.7" fill="none"/></g><g transform="translate(1469.62,389.56)" id="shape92"><path stroke="#191919" stroke-width="5.333333333333" d="" fill="none"/></g><g transform="translate(866.76,414.07)" id="shape93"><path stroke="#191919" stroke-width="5.333333333333" d="M0,0L216.5,66.3" fill="none"/></g><g transform="translate(735.62,414.07)" id="shape94"><path stroke="#191919" stroke-width="5.333333333333" d="M0,0L-305.2,-107.5" fill="none"/></g><g transform="translate(1173.83,328.18)" id="shape95"><path stroke="#191919" stroke-width="5.333333333333" d="M0,0L75.6,-59.9" fill="none"/></g><g transform="translate(1173.83,386.57)" id="shape96"><path stroke="#191919" stroke-width="5.333333333333" d="M0,0L-25,59.8" fill="none"/></g><g transform="translate(1111.89,818.74)" id="shape97"><path stroke="#191919" stroke-width="5.333333333333" d="" fill="none"/></g><g transform="translate(430.99,233.42)" id="shape98"><text xmlns="http://www.w3.org/2000/svg" xml:space="preserve"><tspan x="7.2875001430511475" y="18.80000001192093" textLength="330.41249990463257" style="fill:rgb(255, 0, 0);font-family:Arial;font-size:15pt;font-style: italic;font-weight:bold;">1                                                   1..* </tspan></text></g><g transform="translate(332.73,316.11)" id="shape99"><text xmlns="http://www.w3.org/2000/svg" xml:space="preserve"><tspan x="26.9375" y="18.80000001192093" textLength="11.125" style="fill:rgb(255, 0, 0);font-family:Arial;font-size:15pt;font-style: italic;font-weight:bold;">1</tspan><tspan x="17.475000381469727" y="114.80000305175781" textLength="30.03749990463257" style="fill:rgb(255, 0, 0);font-family:Arial;font-size:15pt;font-style: italic;font-weight:bold;">1..*</tspan></text></g><g transform="translate(344.17,548.20)" id="shape100"><text xmlns="http://www.w3.org/2000/svg" xml:space="preserve"><tspan x="11.974999904632568" y="18.80000001192093" textLength="30.03749990463257" style="fill:rgb(255, 0, 0);font-family:Arial;font-size:15pt;font-style: italic;font-weight:bold;">1..*</tspan><tspan x="21.4375" y="114.80000305175781" textLength="11.125" style="fill:rgb(255, 0, 0);font-family:Arial;font-size:15pt;font-style: italic;font-weight:bold;">1</tspan></text></g><g transform="translate(419.06,695.96)" id="shape101"><text xmlns="http://www.w3.org/2000/svg" xml:space="preserve"><tspan x="10.762500286102295" y="18.80000001192093" textLength="291.47499990463257" style="fill:rgb(255, 0, 0);font-family:Arial;font-size:15pt;font-style: italic;font-weight:bold;">1                                             1..*</tspan></text></g><g transform="translate(876.09,684.65)" id="shape102"><text xmlns="http://www.w3.org/2000/svg" xml:space="preserve"><tspan x="6.4125001430511475" y="18.80000001192093" textLength="308.16249990463257" style="fill:rgb(255, 0, 0);font-family:Arial;font-size:15pt;font-style: italic;font-weight:bold;">1..*                                                1</tspan></text></g><g transform="translate(1148.48,414.43)" id="shape103"><text xmlns="http://www.w3.org/2000/svg" xml:space="preserve"><tspan x="11.974999904632568" y="18.80000001192093" textLength="30.03749990463257" style="fill:rgb(255, 0, 0);font-family:Arial;font-size:15pt;font-style: italic;font-weight:bold;">1..*</tspan></text></g><g transform="translate(1233.35,268.76)" id="shape104"><text xmlns="http://www.w3.org/2000/svg" xml:space="preserve"><tspan x="13.603623240122001" y="18.80000001192093" textLength="11.125" style="fill:rgb(255, 0, 0);font-family:Arial;font-size:15pt;font-style: italic;font-weight:bold;">1</tspan></text></g><g transform="translate(1032.48,433.43)" id="shape105"><text xmlns="http://www.w3.org/2000/svg" xml:space="preserve"><tspan x="11.974999904632568" y="18.80000001192093" textLength="30.03749990463257" style="fill:rgb(255, 0, 0);font-family:Arial;font-size:15pt;font-style: italic;font-weight:bold;">1..*</tspan></text></g><g transform="translate(428.90,280.42)" id="shape106"><text xmlns="http://www.w3.org/2000/svg" xml:space="preserve"><tspan x="13.603623240122001" y="18.80000001192093" textLength="11.125" style="fill:rgb(255, 0, 0);font-family:Arial;font-size:15pt;font-style: italic;font-weight:bold;">1</tspan></text></g></g></svg>
