<svg xmlns="http://www.w3.org/2000/svg" xmlns:xlink="http://www.w3.org/1999/xlink" xmlns:lucid="lucid" width="2522.59" height="887"><g transform="translate(423.0666666666666 26)" lucid:page-tab-id="0_0"><path d="M-353.55 745.37A10.37 10.37 0 0 1-343.18 735h10.37v70h-10.38a10.37 10.37 0 0 1-10.37-10.37z" stroke="#2563eb" stroke-width="2" fill="#dbeafe"/><path d="M-332.8 735h50.22a12 12 0 0 1 12 12v46a12 12 0 0 1-12 12h-50.23z" stroke="#2563eb" stroke-width="2" fill="none"/><use xlink:href="#a" transform="matrix(-1.8369701987210297e-16,-1,1,-1.8369701987210297e-16,-353.54814814814824,805) translate(23.8713330078125 16.216875)"/><use xlink:href="#b" transform="matrix(-1.8369701987210297e-16,-1,1,-1.8369701987210297e-16,-353.54814814814824,805) translate(7.850629882812495 36.47162109375)"/><use xlink:href="#c" transform="matrix(-1.8369701987210297e-16,-1,1,-1.8369701987210297e-16,-353.54814814814824,805) translate(0.7393994140624969 56.7263671875)"/><use xlink:href="#d" transform="matrix(-1.8369701987210297e-16,-1,1,-1.8369701987210297e-16,-353.54814814814824,805) translate(21.1249267578125 76.98111328125)"/><path d="M129.38 746.67A11.67 11.67 0 0 1 141.05 735h11.67v70h-11.67a11.67 11.67 0 0 1-11.67-11.67z" stroke="#2563eb" stroke-width="2" fill="#dbeafe"/><path d="M152.72 735h58a12 12 0 0 1 12 12v46a12 12 0 0 1-12 12h-58z" stroke="#2563eb" stroke-width="2" fill="none"/><use xlink:href="#e" transform="matrix(-1.8369701987210297e-16,-1,1,-1.8369701987210297e-16,129.38410590277783,805) translate(23.7895947265625 16.216875)"/><use xlink:href="#f" transform="matrix(-1.8369701987210297e-16,-1,1,-1.8369701987210297e-16,129.38410590277783,805) translate(9.591655273437496 36.47162109375)"/><use xlink:href="#g" transform="matrix(-1.8369701987210297e-16,-1,1,-1.8369701987210297e-16,129.38410590277783,805) translate(14.8923828125 56.7263671875)"/><use xlink:href="#d" transform="matrix(-1.8369701987210297e-16,-1,1,-1.8369701987210297e-16,129.38410590277783,805) translate(21.1249267578125 76.98111328125)"/><path d="M1029.46 750.7a10.7 10.7 0 0 1 10.7-10.7h10.7v60h-10.7a10.7 10.7 0 0 1-10.7-10.7z" stroke="#2563eb" stroke-width="2" fill="#dbeafe"/><path d="M1050.87 740h52.24a12 12 0 0 1 12 12v36a12 12 0 0 1-12 12h-52.23z" stroke="#2563eb" stroke-width="2" fill="none"/><use xlink:href="#h" transform="matrix(-1.8369701987210297e-16,-1,1,-1.8369701987210297e-16,1029.4618098958335,800.0000000000001) translate(18.5525537109375 16.216875)"/><use xlink:href="#i" transform="matrix(-1.8369701987210297e-16,-1,1,-1.8369701987210297e-16,1029.4618098958335,800.0000000000001) translate(11.298281249999999 36.47162109375)"/><use xlink:href="#d" transform="matrix(-1.8369701987210297e-16,-1,1,-1.8369701987210297e-16,1029.4618098958335,800.0000000000001) translate(16.1249267578125 56.7263671875)"/><path d="M-422.07 206a6 6 0 0 1 6-6h208a6 6 0 0 1 6 6v108a6 6 0 0 1-6 6h-208a6 6 0 0 1-6-6z" stroke="#fcce14" stroke-width="2" fill="#fcfcca"/><use xlink:href="#j" transform="matrix(1,0,0,1,-417.0666666666666,205) translate(77.8179345703125 60.904375)"/><path d="M-422.07 461a6 6 0 0 1 6-6h208a6 6 0 0 1 6 6v108a6 6 0 0 1-6 6h-208a6 6 0 0 1-6-6z" stroke="#cc4e00" stroke-width="2" fill="#ffdda6"/><use xlink:href="#k" transform="matrix(1,0,0,1,-417.0666666666666,460) translate(63.48104003906249 60.904375)"/><use xlink:href="#l" transform="matrix(1,0,0,1,-417.0666666666666,460) translate(92.2202197265625 60.904375)"/><path d="M46.05-19a6 6 0 0 1 6-6h248a6 6 0 0 1 6 6V89a6 6 0 0 1-6 6h-248a6 6 0 0 1-6-6z" stroke="#008a0e" stroke-width="2" fill="#c3f7c8"/><use xlink:href="#m" transform="matrix(1,0,0,1,51.050772569444575,-20) translate(36.747177734374986 60.904375)"/><use xlink:href="#n" transform="matrix(1,0,0,1,51.050772569444575,-20) translate(91.86330078124999 60.904375)"/><use xlink:href="#o" transform="matrix(1,0,0,1,51.050772569444575,-20) translate(102.6037109375 60.904375)"/><use xlink:href="#p" transform="matrix(1,0,0,1,51.050772569444575,-20) translate(170.863349609375 60.904375)"/><path d="M1838.52 461a6 6 0 0 1 6-6h248a6 6 0 0 1 6 6v108a6 6 0 0 1-6 6h-248a6 6 0 0 1-6-6z" stroke="#ba23f6" stroke-width="2" fill="#fbf0ff"/><use xlink:href="#q" transform="matrix(1,0,0,1,1843.5205295138894,460) translate(64.06819824218749 60.904375)"/><use xlink:href="#n" transform="matrix(1,0,0,1,1843.5205295138894,460) translate(116.84660644531249 60.904375)"/><use xlink:href="#r" transform="matrix(1,0,0,1,1843.5205295138894,460) translate(127.5870166015625 60.904375)"/><path d="M266.05 515c0 49.7-40.3 90-90 90s-90-40.3-90-90 40.3-90 90-90 90 40.3 90 90z" stroke="#dc2626" stroke-width="2" fill="#fee2e2"/><use xlink:href="#s" transform="matrix(1,0,0,1,91.05077256944458,430) translate(74.78271484375 80.96296875)"/><use xlink:href="#t" transform="matrix(1,0,0,1,91.05077256944458,430) translate(12.608491210937501 101.21771484375)"/><use xlink:href="#u" transform="matrix(1,0,0,1,91.05077256944458,430) translate(79.82187988281251 101.21771484375)"/><use xlink:href="#v" transform="matrix(1,0,0,1,91.05077256944458,430) translate(117.3806201171875 101.21771484375)"/><path d="M734.17 515c0 49.7-40.3 90-90 90s-90-40.3-90-90 40.3-90 90-90 90 40.3 90 90z" stroke="#dc2626" stroke-width="2" fill="#fee2e2"/><use xlink:href="#w" transform="matrix(1,0,0,1,559.1682118055558,430) translate(72.3591748046875 80.96296875)"/><use xlink:href="#x" transform="matrix(1,0,0,1,559.1682118055558,430) translate(1.3572167968749937 101.21771484375)"/><use xlink:href="#y" transform="matrix(1,0,0,1,559.1682118055558,430) translate(56.702207031250005 101.21771484375)"/><use xlink:href="#z" transform="matrix(1,0,0,1,559.1682118055558,430) translate(101.62556640625 101.21771484375)"/><use xlink:href="#A" transform="matrix(1,0,0,1,559.1682118055558,430) translate(117.114970703125 101.21771484375)"/><path d="M1162.3 515c0 49.7-40.3 90-90 90-49.72 0-90-40.3-90-90s40.28-90 90-90c49.7 0 90 40.3 90 90z" stroke="#dc2626" stroke-width="2" fill="#fee2e2"/><use xlink:href="#B" transform="matrix(1,0,0,1,987.2856510416668,430) translate(72.518564453125 80.96296875)"/><use xlink:href="#C" transform="matrix(1,0,0,1,987.2856510416668,430) translate(27.6074658203125 101.21771484375)"/><use xlink:href="#D" transform="matrix(1,0,0,1,987.2856510416668,430) translate(104.98909667968749 101.21771484375)"/><path d="M734.17 260c0 49.7-40.3 90-90 90s-90-40.3-90-90 40.3-90 90-90 90 40.3 90 90z" stroke="#dc2626" stroke-width="2" fill="#fee2e2"/><use xlink:href="#E" transform="matrix(1,0,0,1,559.1682118055558,175) translate(72.0567431640625 80.96296875)"/><use xlink:href="#F" transform="matrix(1,0,0,1,559.1682118055558,175) translate(31.571772460937495 101.21771484375)"/><use xlink:href="#G" transform="matrix(1,0,0,1,559.1682118055558,175) translate(84.06409667968751 101.21771484375)"/><path d="M1590.4 515c0 49.7-40.3 90-90 90s-90-40.3-90-90 40.3-90 90-90 90 40.3 90 90z" stroke="#dc2626" stroke-width="2" fill="#fee2e2"/><use xlink:href="#H" transform="matrix(1,0,0,1,1415.4030902777781,430) translate(72.49404296875 70.67)"/><use xlink:href="#I" transform="matrix(1,0,0,1,1415.4030902777781,430) translate(3.331196289062504 90.92474609375)"/><use xlink:href="#J" transform="matrix(1,0,0,1,1415.4030902777781,430) translate(77.59859863281251 90.92474609375)"/><use xlink:href="#K" transform="matrix(1,0,0,1,1415.4030902777781,430) translate(69.935634765625 111.1794921875)"/><path d="M734.17 770c0 49.7-40.3 90-90 90s-90-40.3-90-90 40.3-90 90-90 90 40.3 90 90z" stroke="#dc2626" stroke-width="2" fill="#fee2e2"/><use xlink:href="#L" transform="matrix(1,0,0,1,559.1682118055558,685) translate(72.485869140625 80.96296875)"/><use xlink:href="#M" transform="matrix(1,0,0,1,559.1682118055558,685) translate(12.571708984374993 101.21771484375)"/><use xlink:href="#N" transform="matrix(1,0,0,1,559.1682118055558,685) translate(59.15435546875 101.21771484375)"/><use xlink:href="#O" transform="matrix(1,0,0,1,559.1682118055558,685) translate(101.26591796875 101.21771484375)"/><path d="M177.03 405.5h-1.95V280.98h-3.32v-1.96h5.27zm-377.1-124.52v-1.96h147.3v1.96z" stroke="#000" stroke-width=".05"/><path d="M-200.04 280.98h-1.03v-1.96h1.03z"/><path stroke="#000" stroke-width=".05"/><path d="M176.05 420.76l-4.63-14.26h9.27z"/><path d="M176.05 423.92l-5.98-18.4h11.96zm-3.3-16.45l3.3 10.14 3.3-10.13z" stroke="#000" stroke-width=".05"/><use xlink:href="#P" transform="matrix(1,0,0,1,-52.77792679772713,269.2447916666667) translate(0.0049999999999954525 17.22222222222222)"/><use xlink:href="#Q" transform="matrix(1,0,0,1,-52.77792679772713,269.2447916666667) translate(52.26194444444444 17.22222222222222)"/><use xlink:href="#R" transform="matrix(1,0,0,1,-52.77792679772713,269.2447916666667) translate(108.68555555555555 17.22222222222222)"/><use xlink:href="#S" transform="matrix(1,0,0,1,-52.77792679772713,269.2447916666667) translate(119.79666666666667 17.22222222222222)"/><use xlink:href="#T" transform="matrix(1,0,0,1,-52.77792679772713,269.2447916666667) translate(154.57097222222222 17.22222222222222)"/><path d="M-157.76 515.98h-42.3V514h42.3zm224.3 0h-24.8V514h24.8z" stroke="#000" stroke-width=".05"/><path d="M-200.04 515.98h-1.03V514h1.03z"/><path stroke="#000" stroke-width=".05"/><path d="M81.81 515l-14.25 4.63v-9.26z"/><path d="M84.97 515l-18.4 5.98v-11.96zm-16.45 3.3l10.14-3.3-10.14-3.3z" stroke="#000" stroke-width=".05"/><use xlink:href="#U" transform="matrix(1,0,0,1,-157.75622540883825,504.2447916666667) translate(0.0049999999999954525 17.22222222222222)"/><use xlink:href="#V" transform="matrix(1,0,0,1,-157.75622540883825,504.2447916666667) translate(74.01541666666667 17.22222222222222)"/><use xlink:href="#W" transform="matrix(1,0,0,1,-157.75622540883825,504.2447916666667) translate(85.12652777777778 17.22222222222222)"/><use xlink:href="#X" transform="matrix(1,0,0,1,-157.75622540883825,504.2447916666667) translate(161.05534722222222 17.22222222222222)"/><path d="M534.67 514.02V516H472.1V514zm-103.6-9.77h-1.94V180.06h1.95zm0-371.5h-1.94V35.96H308.05v-1.95h123.03z" stroke="#000" stroke-width=".05"/><path d="M308.08 35.98h-1.03v-1.95h1.03z"/><path stroke="#000" stroke-width=".05"/><path d="M549.93 515l-14.26 4.63v-9.26z"/><path d="M553.1 515l-18.4 5.98v-11.96zm-16.46 3.3l10.14-3.3-10.14-3.3z" stroke="#000" stroke-width=".05"/><use xlink:href="#Y" transform="matrix(1,0,0,1,387.8351866319446,132.74442792543897) translate(6.311423611111117 17.22222222222222)"/><use xlink:href="#Z" transform="matrix(1,0,0,1,387.8351866319446,132.74442792543897) translate(0.005000000000002558 43.034722222222214)"/><use xlink:href="#aa" transform="matrix(1,0,0,1,387.8351866319446,132.74442792543897) translate(4.215069444444447 43.034722222222214)"/><use xlink:href="#ab" transform="matrix(1,0,0,1,387.8351866319446,132.74442792543897) translate(40.88173611111111 43.034722222222214)"/><path d="M1836.52 535H1607.7" stroke="#000" stroke-width="2" fill="none"/><path d="M1837.52 535.98h-1.03V534h1.02z" stroke="#000" stroke-width=".05"/><path d="M1592.43 535l14.27-4.63v9.26z" stroke="#000" stroke-width="2"/><use xlink:href="#ac" transform="matrix(1,0,0,1,1622.7710856558192,538.9999999999999) translate(0.0049999999999954525 17.22222222222222)"/><use xlink:href="#ad" transform="matrix(1,0,0,1,1622.7710856558192,538.9999999999999) translate(85.29145833333332 17.22222222222222)"/><path d="M348.1 515.98h-80.05V514h80.06zm186.57 0H472.1V514h62.57z" stroke="#000" stroke-width=".05"/><path d="M268.08 515.98h-1.06l.03-.97v-.98h1.03z"/><path stroke="#000" stroke-width=".05"/><path d="M549.93 515l-14.26 4.63v-9.26z"/><path d="M553.1 515l-18.4 5.98v-11.96zm-16.46 3.3l10.14-3.3-10.14-3.3z" stroke="#000" stroke-width=".05"/><use xlink:href="#ae" transform="matrix(1,0,0,1,348.11296440972234,504.2447916666667) translate(0.005000000000002558 17.22222222222222)"/><use xlink:href="#af" transform="matrix(1,0,0,1,348.11296440972234,504.2447916666667) translate(36.67166666666667 17.22222222222222)"/><use xlink:href="#X" transform="matrix(1,0,0,1,348.11296440972234,504.2447916666667) translate(85.551875 17.22222222222222)"/><path d="M746.9 527.98h-11.55V526h11.55zm216.68 0H853.14V526h110.44z" stroke="#000" stroke-width=".05"/><path d="M735.38 527.98h-1.16l.27-1.96h.88z"/><path stroke="#000" stroke-width=".05"/><path d="M978.84 527l-14.26 4.63v-9.26z"/><path d="M982 527l-18.4 5.98v-11.96zm-16.45 3.3l10.14-3.3-10.15-3.3z" stroke="#000" stroke-width=".05"/><use xlink:href="#ag" transform="matrix(1,0,0,1,746.899384009572,516.2447916666666) translate(0.005000000000002558 17.22222222222222)"/><use xlink:href="#ah" transform="matrix(1,0,0,1,746.899384009572,516.2447916666666) translate(56.237638888888895 17.22222222222222)"/><path d="M981.1 503h-60.84V260h-166.6" stroke="#000" stroke-width="2" fill="none"/><path d="M981.97 503.98h-.9v-1.96h1.17z" stroke="#000" stroke-width=".05"/><path d="M738.4 260l14.27-4.63v9.26z" stroke="#000" stroke-width="2"/><use xlink:href="#ai" transform="matrix(1,0,0,1,820.6986267568233,234.48958333333334) translate(0.005000000000002558 17.22222222222222)"/><use xlink:href="#aj" transform="matrix(1,0,0,1,820.6986267568233,234.48958333333334) translate(44.04145833333333 17.22222222222222)"/><path d="M1199.18 515.98h-34.9V514h34.9zm191.72 0h-49.74V514h49.74z" stroke="#000" stroke-width=".05"/><path d="M1164.3 515.98h-1.04l.03-.97-.02-.98h1.03z"/><path stroke="#000" stroke-width=".05"/><path d="M1406.17 515l-14.27 4.63v-9.26z"/><path d="M1409.32 515l-18.4 5.98v-11.96zm-16.44 3.3L1403 515l-10.12-3.3z" stroke="#000" stroke-width=".05"/><use xlink:href="#ak" transform="matrix(1,0,0,1,1199.1789234547596,504.2447916666667) translate(0.0049999999999954525 17.22222222222222)"/><use xlink:href="#al" transform="matrix(1,0,0,1,1199.1789234547596,504.2447916666667) translate(102.15777777777777 17.22222222222222)"/><path d="M987.7 551H858.22v209H753.1" stroke="#000" stroke-width="2" fill="none"/><path d="M988.58 550.75l.56 1.23h-1.47V550h.62z" stroke="#000" stroke-width=".05"/><path d="M737.83 760l14.27-4.63v9.26z" stroke="#000" stroke-width="2"/><g><use xlink:href="#am" transform="matrix(1,0,0,1,885.8847057027386,554.9999999999999) translate(8.477222222222224 17.22222222222222)"/><use xlink:href="#an" transform="matrix(1,0,0,1,885.8847057027386,554.9999999999999) translate(0.004999999999999005 43.034722222222214)"/><use xlink:href="#X" transform="matrix(1,0,0,1,885.8847057027386,554.9999999999999) translate(9.167326388888888 68.84722222222221)"/></g><path d="M-51.1 240.97h-131.46v-1.94H-51.1zm483.18-6.64l2.9 2.1.84 2.6h118.56v1.94H434.4l-1.08-3.32-2.02-1.47-1.1-.18-2.44.8-1.47 2-.36 2.17H134.38v-1.94h289.9l.16-1 2.12-2.9 3.47-1.13z" stroke="#000" stroke-width=".05"/><path d="M555.4 239.86l-.22 1.1h-.83v-1.94h1.27z"/><path stroke="#000" stroke-width=".05"/><path d="M-183.56 244.63l-14.27-4.63 14.27-4.63z"/><path d="M-182.6 245.98L-201 240l18.4-5.98zm-12.08-5.98l10.14 3.3v-6.6z" stroke="#000" stroke-width=".05"/><g><use xlink:href="#ao" transform="matrix(1,0,0,1,-51.09298148148787,229.24479166666666) translate(0.0049999999999954525 17.22222222222222)"/><use xlink:href="#V" transform="matrix(1,0,0,1,-51.09298148148787,229.24479166666666) translate(75.16125 17.22222222222222)"/><use xlink:href="#ap" transform="matrix(1,0,0,1,-51.09298148148787,229.24479166666666) translate(86.27236111111111 17.22222222222222)"/><use xlink:href="#aq" transform="matrix(1,0,0,1,-51.09298148148787,229.24479166666666) translate(145.6473611111111 17.22222222222222)"/></g><path d="M1590.17 495h228.85" stroke="#000" stroke-width="2" fill="none"/><path d="M1590.2 495.98h-.82l-.42-1.96h1.23z" stroke="#000" stroke-width=".05"/><path d="M1834.28 495l-14.26 4.63v-9.26z" stroke="#000" stroke-width="2"/><g><use xlink:href="#ar" transform="matrix(1,0,0,1,1594.959749241758,469.4895833333333) translate(0.0049999999999954525 17.22222222222222)"/><use xlink:href="#as" transform="matrix(1,0,0,1,1594.959749241758,469.4895833333333) translate(34.77930555555555 17.22222222222222)"/><use xlink:href="#at" transform="matrix(1,0,0,1,1594.959749241758,469.4895833333333) translate(136.9320833333333 17.22222222222222)"/></g><path d="M1501.38 423h-1.95V15.98H1195.4v-1.96h305.98zM325.55 15.98v-1.96h695.5v1.96z" stroke="#000" stroke-width=".05"/><path d="M1501.38 424.03l-.97-.03h-.97v-1.03h1.95z"/><path stroke="#000" stroke-width=".05"/><path d="M324.55 19.64L310.3 15l14.25-4.63z"/><path d="M325.53 20.98L307.13 15l18.4-5.98zM313.43 15l10.15 3.3v-6.6z" stroke="#000" stroke-width=".05"/><g><use xlink:href="#au" transform="matrix(1,0,0,1,1021.0567780633842,4.244791666666668) translate(0.0049999999999954525 17.22222222222222)"/><use xlink:href="#av" transform="matrix(1,0,0,1,1021.0567780633842,4.244791666666668) translate(74.7532638888889 17.22222222222222)"/></g><path d="M-199.64 624.73h-125.28v90.77h-1.95v-92.73h127.23zm353.33 0H-63v-1.96h214.72v-18.82h1.95z" stroke="#000" stroke-width=".05"/><path d="M153.7 603.2v.77h-1.96v-1.27z"/><path stroke="#000" stroke-width=".05"/><path d="M-325.9 730.76l-4.63-14.26h9.27z"/><path d="M-325.9 733.92l-5.97-18.4h11.95zm-3.3-16.45l3.3 10.14 3.3-10.13z" stroke="#000" stroke-width=".05"/><g><use xlink:href="#aw" transform="matrix(1,0,0,1,-199.6414331390049,612.9947916666666) translate(0.0049999999999954525 17.22222222222222)"/><use xlink:href="#ad" transform="matrix(1,0,0,1,-199.6414331390049,612.9947916666666) translate(75.93381944444444 17.22222222222222)"/></g><path d="M-171.53 643.48h-125.73V733h-1.95v-91.48h127.67zm348.56 0H-5.67v-1.96H175.1V624.5h1.95z" stroke="#000" stroke-width=".05"/><path d="M-297.26 734h-1.95v-1.03h1.94z"/><path stroke="#000" stroke-width=".05"/><path d="M180.7 623.5h-9.28l4.63-14.26z"/><path d="M182.03 624.48h-11.96l5.98-18.4zm-9.27-1.95h6.58l-3.3-10.14z" stroke="#000" stroke-width=".05"/><g><use xlink:href="#ax" transform="matrix(1,0,0,1,-171.53274932859125,631.7447916666666) translate(0.0049999999999954525 17.22222222222222)"/><use xlink:href="#ay" transform="matrix(1,0,0,1,-171.53274932859125,631.7447916666666) translate(62.21854166666667 17.22222222222222)"/><use xlink:href="#X" transform="matrix(1,0,0,1,-171.53274932859125,631.7447916666666) translate(127.43555555555555 17.22222222222222)"/></g><path d="M199.38 733v-71.75h444.8V624.5" stroke="#000" stroke-width="2" fill="none"/><path d="M200.36 734h-1.95v-1.03h1.96z" stroke="#000" stroke-width=".05"/><path d="M644.17 609.24l4.63 14.26h-9.27z" stroke="#000" stroke-width="2"/><g><use xlink:href="#az" transform="matrix(1,0,0,1,458.3137082215868,665.25) translate(0.0049999999999954525 17.22222222222222)"/><use xlink:href="#aA" transform="matrix(1,0,0,1,458.3137082215868,665.25) translate(46.60222222222222 17.22222222222222)"/><use xlink:href="#aB" transform="matrix(1,0,0,1,458.3137082215868,665.25) translate(134.8053472222222 17.22222222222222)"/><use xlink:href="#X" transform="matrix(1,0,0,1,458.3137082215868,665.25) translate(178.37305555555554 17.22222222222222)"/></g><path d="M831.62 780.98h-96V779h96zm178.34 0h-78.5V779h78.5z" stroke="#000" stroke-width=".05"/><path d="M735.65 780.98h-1.15l.1-.78.1-1.18h.95z"/><path stroke="#000" stroke-width=".05"/><path d="M1025.23 780l-14.27 4.63v-9.26z"/><path d="M1028.38 780l-18.4 5.98v-11.96zm-16.45 3.3l10.14-3.3-10.14-3.3z" stroke="#000" stroke-width=".05"/><g><use xlink:href="#aC" transform="matrix(1,0,0,1,831.6232996399283,769.2447916666666) translate(0.005000000000002558 17.22222222222222)"/><use xlink:href="#al" transform="matrix(1,0,0,1,831.6232996399283,769.2447916666666) translate(60.01368055555556 17.22222222222222)"/></g><path d="M1278.68 770.98h-161.57V769h161.6zm222.7-11.74h-1.95V624.5h1.95z" stroke="#000" stroke-width=".05"/><path d="M1117.13 770.98h-1.02V769h1.04z"/><path stroke="#000" stroke-width=".05"/><path d="M1505.04 623.5h-9.27l4.63-14.26z"/><path d="M1506.38 624.48h-11.95l5.97-18.4zm-9.27-1.95h6.6l-3.3-10.14z" stroke="#000" stroke-width=".05"/><g><use xlink:href="#ai" transform="matrix(1,0,0,1,1278.6850960599118,759.2447916666666) translate(0.0049999999999954525 17.22222222222222)"/><use xlink:href="#aD" transform="matrix(1,0,0,1,1278.6850960599118,759.2447916666666) translate(44.041458333333324 17.22222222222222)"/><use xlink:href="#R" transform="matrix(1,0,0,1,1278.6850960599118,759.2447916666666) translate(109.55361111111111 17.22222222222222)"/><use xlink:href="#aE" transform="matrix(1,0,0,1,1278.6850960599118,759.2447916666666) translate(120.66472222222222 17.22222222222222)"/><use xlink:href="#aF" transform="matrix(1,0,0,1,1278.6850960599118,759.2447916666666) translate(166.37652777777777 17.22222222222222)"/></g><defs><path d="M645 0H180v-1490h484c435 0 692 280 692 742 0 466-257 748-711 748zM370-168h263c363 0 539-218 539-580 0-358-176-574-521-574H370v1154" id="aG"/><path d="M626 20c-262 0-458-168-468-396h184c12 133 134 229 284 229 180 0 311-137 311-326 0-192-136-335-323-335-92 0-196 33-255 78l-178-22 88-738h784v167H429l-51 435h8c61-51 160-87 263-87 273 0 474 211 474 499 0 286-210 496-497 496" id="aH"/><g id="a"><use transform="matrix(0.008173828125000001,0,0,0.008173828125000001,0,0)" xlink:href="#aG"/><use transform="matrix(0.008173828125000001,0,0,0.008173828125000001,12.08091796875,0)" xlink:href="#aH"/></g><path d="M628 24c-324 0-524-230-524-574 0-343 198-582 503-582 237 0 487 146 487 559v75H286c9 234 145 362 343 362 132 0 231-58 273-172l174 48C1024-91 857 24 628 24zM287-650h624c-17-190-120-322-304-322-192 0-309 151-320 322" id="aI"/><path d="M481 0L54-1118h197c107 314 236 620 325 951 87-331 217-637 324-951h197L670 0H481" id="aJ"/><path d="M158 0v-1118h180V0H158zm91-1301c-68 0-125-53-125-119s57-119 125-119c69 0 126 53 126 119s-57 119-126 119" id="aK"/><path d="M613 24c-304 0-509-231-509-576 0-350 205-580 509-580 216 0 392 114 453 309l-173 49c-33-115-133-197-280-197-223 0-326 196-326 419 0 220 103 415 326 415 150 0 252-85 285-206l172 49C1010-95 832 24 613 24" id="aL"/><g id="b"><use transform="matrix(0.008173828125000001,0,0,0.008173828125000001,0,0)" xlink:href="#aG"/><use transform="matrix(0.008173828125000001,0,0,0.008173828125000001,12.08091796875,0)" xlink:href="#aI"/><use transform="matrix(0.008173828125000001,0,0,0.008173828125000001,21.513515625000004,0)" xlink:href="#aJ"/><use transform="matrix(0.008173828125000001,0,0,0.008173828125000001,30.921591796875006,0)" xlink:href="#aK"/><use transform="matrix(0.008173828125000001,0,0,0.008173828125000001,34.97581054687501,0)" xlink:href="#aL"/><use transform="matrix(0.008173828125000001,0,0,0.008173828125000001,44.53918945312501,0)" xlink:href="#aI"/></g><path d="M98-1322v-168h1126v168H757V0H567v-1322H98" id="aM"/><path d="M158 0v-1118h174v172h12c41-113 157-188 290-188 26 0 70 2 91 3v181c-11-2-60-10-108-10-161 0-279 109-279 260V0H158" id="aN"/><path d="M471 26C259 26 90-98 90-318c0-256 228-303 435-329 202-27 287-16 287-108 0-139-79-219-234-219-161 0-248 86-283 164l-173-57c86-203 278-265 451-265 150 0 419 46 419 395V0H815v-152h-12C765-73 660 26 471 26zm31-159c199 0 310-134 310-271v-155c-30 35-226 55-295 64-131 17-246 59-246 186 0 116 97 176 231 176" id="aO"/><path d="M158 0v-1490h180v865h22l478-493h223L593-638 1096 0H865L456-523 338-412V0H158" id="aP"/><path d="M338-670V0H158v-1118h173l1 207c72-158 192-221 342-221 226 0 378 139 378 422V0H872v-695c0-172-96-275-252-275-161 0-282 109-282 300" id="aQ"/><path d="M611 442c-248 0-391-105-460-228l146-94c47 65 117 165 314 165 178 0 307-82 307-266v-224h-17C863-141 792-18 576-18c-268 0-472-195-472-546 0-346 197-568 476-568 216 0 288 133 326 193h17v-179h175V29c0 289-215 413-487 413zm-5-620c203 0 314-146 314-390 0-237-108-403-314-403-213 0-319 180-319 403 0 230 109 390 319 390" id="aR"/><g id="c"><use transform="matrix(0.008173828125000001,0,0,0.008173828125000001,0,0)" xlink:href="#aM"/><use transform="matrix(0.008173828125000001,0,0,0.008173828125000001,9.857636718750001,0)" xlink:href="#aN"/><use transform="matrix(0.008173828125000001,0,0,0.008173828125000001,16.159658203125,0)" xlink:href="#aO"/><use transform="matrix(0.008173828125000001,0,0,0.008173828125000001,25.559560546875005,0)" xlink:href="#aL"/><use transform="matrix(0.008173828125000001,0,0,0.008173828125000001,35.12293945312501,0)" xlink:href="#aP"/><use transform="matrix(0.008173828125000001,0,0,0.008173828125000001,44.310322265625004,0)" xlink:href="#aK"/><use transform="matrix(0.008173828125000001,0,0,0.008173828125000001,48.36454101562501,0)" xlink:href="#aQ"/><use transform="matrix(0.008173828125000001,0,0,0.008173828125000001,58.254873046875005,0)" xlink:href="#aR"/></g><path d="M180 0v-1490h901v168H370v510h643v168H370V0H180" id="aS"/><path d="M338-1490V0H158v-1490h180" id="aT"/><g id="d"><use transform="matrix(0.008173828125000001,0,0,0.008173828125000001,0,0)" xlink:href="#aS"/><use transform="matrix(0.008173828125000001,0,0,0.008173828125000001,9.882158203125002,0)" xlink:href="#aK"/><use transform="matrix(0.008173828125000001,0,0,0.008173828125000001,13.936376953125002,0)" xlink:href="#aT"/><use transform="matrix(0.008173828125000001,0,0,0.008173828125000001,17.990595703125003,0)" xlink:href="#aI"/></g><path d="M635 20c-292 0-500-160-510-396h192c11 142 145 229 315 229 187 0 323-105 323-260 0-161-125-274-346-274H488v-165h121c174 0 294-100 294-254 0-148-104-245-266-245-152 0-291 85-297 230H157c8-234 222-395 484-395 278 0 448 188 448 400 0 168-95 291-247 336v12c190 31 301 169 301 357 0 244-216 425-508 425" id="aU"/><g id="e"><use transform="matrix(0.008173828125000001,0,0,0.008173828125000001,0,0)" xlink:href="#aG"/><use transform="matrix(0.008173828125000001,0,0,0.008173828125000001,12.08091796875,0)" xlink:href="#aU"/></g><path d="M657 26c-323 0-524-166-541-416h195c15 169 171 246 346 246 202 0 356-106 356-265 5-203-294-238-475-293-239-73-380-191-380-389 0-252 224-419 512-419 294 0 499 171 508 396H992c-17-145-151-228-328-228-193 0-321 102-321 242 0 156 175 211 284 241l149 41c160 44 422 134 422 412 0 244-197 432-541 432" id="aV"/><path d="M678-1118v154H420V0H240v-964H20v-154h220v-149c0-194 155-293 318-293 85 0 141 18 168 30l-50 154c-19-6-47-17-97-17-111 0-159 58-159 166v109h258" id="aW"/><path d="M598-1118v154H368v674c0 100 37 144 132 144 23 0 62-6 92-12L629-6c-37 13-88 20-134 20-193 0-307-107-307-290v-688H20v-154h168v-266h180v266h230" id="aX"/><path d="M140 405l46-156c120 36 205 19 263-150l32-93L54-1118h197c107 313 237 620 324 950 87-331 219-637 326-950h196L606 167c-68 178-176 259-334 259-64 0-113-12-132-21" id="aY"/><g id="f"><use transform="matrix(0.008173828125000001,0,0,0.008173828125000001,0,0)" xlink:href="#aV"/><use transform="matrix(0.008173828125000001,0,0,0.008173828125000001,10.740410156250002,0)" xlink:href="#aO"/><use transform="matrix(0.008173828125000001,0,0,0.008173828125000001,20.140312500000004,0)" xlink:href="#aW"/><use transform="matrix(0.008173828125000001,0,0,0.008173828125000001,25.845644531250002,0)" xlink:href="#aI"/><use transform="matrix(0.008173828125000001,0,0,0.008173828125000001,35.6051953125,0)" xlink:href="#aX"/><use transform="matrix(0.008173828125000001,0,0,0.008173828125000001,41.408613281250005,0)" xlink:href="#aY"/></g><path d="M130 0v-134l666-991c45-67 96-135 147-202-269 9-546 3-821 5v-168h1036v136L502-379c-49 72-103 145-157 216 268-9 546-3 821-5V0H130" id="aZ"/><path d="M613 24c-304 0-509-231-509-576 0-350 205-580 509-580 305 0 511 230 511 580 0 345-206 576-511 576zm0-161c226 0 329-195 329-415 0-222-103-419-329-419-223 0-326 196-326 419 0 220 103 415 326 415" id="ba"/><g id="g"><use transform="matrix(0.008173828125000001,0,0,0.008173828125000001,0,0)" xlink:href="#aZ"/><use transform="matrix(0.008173828125000001,0,0,0.008173828125000001,10.527890625000001,0)" xlink:href="#ba"/><use transform="matrix(0.008173828125000001,0,0,0.008173828125000001,20.565351562500002,0)" xlink:href="#aQ"/><use transform="matrix(0.008173828125000001,0,0,0.008173828125000001,30.455683593750003,0)" xlink:href="#aI"/></g><path d="M120-303v-155l652-1032h231v1020h202v167h-202V0H821v-303H120zm702-167v-782h-12L323-482v12h499" id="bb"/><g id="h"><use transform="matrix(0.008173828125000001,0,0,0.008173828125000001,0,0)" xlink:href="#aG"/><use transform="matrix(0.008173828125000001,0,0,0.008173828125000001,12.08091796875,0)" xlink:href="#bb"/></g><path d="M52 0l541-1490h220L1361 0h-200l-149-416H398L254 0H52zm404-582h497c-103-290-145-390-251-756-108 377-145 460-246 756" id="bc"/><g id="i"><use transform="matrix(0.008173828125000001,0,0,0.008173828125000001,0,0)" xlink:href="#bc"/><use transform="matrix(0.008173828125000001,0,0,0.008173828125000001,11.549619140625001,0)" xlink:href="#aT"/><use transform="matrix(0.008173828125000001,0,0,0.008173828125000001,15.603837890625002,0)" xlink:href="#aI"/><use transform="matrix(0.008173828125000001,0,0,0.008173828125000001,25.363388671875,0)" xlink:href="#aN"/><use transform="matrix(0.008173828125000001,0,0,0.008173828125000001,31.92697265625,0)" xlink:href="#aX"/></g><path d="M537 14c-226 0-379-139-379-422v-710h180v695c0 172 97 275 253 275 160 0 281-109 281-300v-670h181V0H879v-209C806-46 684 14 537 14" id="bd"/><path d="M538 24C308 24 148-78 108-271l171-41c32 123 123 178 257 178 156 0 256-77 256-169 0-77-54-128-164-154l-186-44c-203-48-300-148-300-305 0-192 176-326 414-326 230 0 351 112 402 269l-163 42c-31-80-94-158-238-158-133 0-233 69-233 162 0 83 57 129 188 160l169 40c203 48 298 149 298 302 0 196-179 339-441 339" id="be"/><g id="j"><use transform="matrix(0.008173828125000001,0,0,0.008173828125000001,0,0)" xlink:href="#aM"/><use transform="matrix(0.008173828125000001,0,0,0.008173828125000001,9.49798828125,0)" xlink:href="#ba"/><use transform="matrix(0.008173828125000001,0,0,0.008173828125000001,19.535449218750003,0)" xlink:href="#bd"/><use transform="matrix(0.008173828125000001,0,0,0.008173828125000001,29.433955078125003,0)" xlink:href="#aN"/><use transform="matrix(0.008173828125000001,0,0,0.008173828125000001,35.9975390625,0)" xlink:href="#aK"/><use transform="matrix(0.008173828125000001,0,0,0.008173828125000001,40.0517578125,0)" xlink:href="#be"/><use transform="matrix(0.008173828125000001,0,0,0.008173828125000001,48.887666015625,0)" xlink:href="#aX"/></g><path d="M370-1490V0H180v-1490h190" id="bf"/><g id="k"><use transform="matrix(0.008173828125000001,0,0,0.008173828125000001,0,0)" xlink:href="#bf"/><use transform="matrix(0.008173828125000001,0,0,0.008173828125000001,4.495605468750001,0)" xlink:href="#ba"/><use transform="matrix(0.008173828125000001,0,0,0.008173828125000001,13.225253906250002,0)" xlink:href="#aM"/></g><g id="l"><use transform="matrix(0.008173828125000001,0,0,0.008173828125000001,0,0)" xlink:href="#aG"/><use transform="matrix(0.008173828125000001,0,0,0.008173828125000001,12.08091796875,0)" xlink:href="#aI"/><use transform="matrix(0.008173828125000001,0,0,0.008173828125000001,21.513515625000004,0)" xlink:href="#aJ"/><use transform="matrix(0.008173828125000001,0,0,0.008173828125000001,30.921591796875006,0)" xlink:href="#aK"/><use transform="matrix(0.008173828125000001,0,0,0.008173828125000001,34.97581054687501,0)" xlink:href="#aL"/><use transform="matrix(0.008173828125000001,0,0,0.008173828125000001,44.53918945312501,0)" xlink:href="#aI"/></g><path d="M577 24c-279 0-473-224-473-580 0-354 195-576 474-576 218 0 287 134 324 193h14v-551h180V0H922v-173h-20C865-111 790 24 577 24zm27-161c203 0 314-172 314-421 0-247-108-413-314-413-212 0-317 181-317 413 0 235 108 421 317 421" id="bg"/><path d="M158 0v-1118h175l1 205c55-151 181-225 313-225 147 0 245 90 285 228 53-141 190-228 352-228 194 0 352 125 352 384V0h-181v-749c0-161-105-225-225-225-151 0-243 103-243 244V0H807v-767c0-124-93-207-219-207-131 0-250 92-250 270V0H158" id="bh"/><g id="m"><use transform="matrix(0.008173828125000001,0,0,0.008173828125000001,0,0)" xlink:href="#bc"/><use transform="matrix(0.008173828125000001,0,0,0.008173828125000001,11.549619140625001,0)" xlink:href="#bg"/><use transform="matrix(0.008173828125000001,0,0,0.008173828125000001,21.799599609375,0)" xlink:href="#bh"/><use transform="matrix(0.008173828125000001,0,0,0.008173828125000001,36.46344726562501,0)" xlink:href="#aK"/><use transform="matrix(0.008173828125000001,0,0,0.008173828125000001,40.51766601562501,0)" xlink:href="#aQ"/></g><path d="M692-1560L212 224H46l480-1784h166" id="bi"/><use transform="matrix(0.008173828125000001,0,0,0.008173828125000001,0,0)" xlink:href="#bi" id="n"/><g id="o"><use transform="matrix(0.008173828125000001,0,0,0.008173828125000001,0,0)" xlink:href="#aM"/><use transform="matrix(0.008173828125000001,0,0,0.008173828125000001,9.49798828125,0)" xlink:href="#ba"/><use transform="matrix(0.008173828125000001,0,0,0.008173828125000001,19.535449218750003,0)" xlink:href="#bd"/><use transform="matrix(0.008173828125000001,0,0,0.008173828125000001,29.433955078125003,0)" xlink:href="#aN"/><use transform="matrix(0.008173828125000001,0,0,0.008173828125000001,35.9975390625,0)" xlink:href="#aK"/><use transform="matrix(0.008173828125000001,0,0,0.008173828125000001,40.0517578125,0)" xlink:href="#be"/><use transform="matrix(0.008173828125000001,0,0,0.008173828125000001,48.887666015625,0)" xlink:href="#bh"/></g><path d="M158 418v-1536h174v179h20c37-59 106-193 324-193 279 0 474 222 474 576 0 356-194 580-473 580-213 0-288-135-325-197h-14v591H158zm492-555c209 0 317-186 317-421 0-232-105-413-317-413-206 0-314 166-314 413 0 249 111 421 314 421" id="bj"/><path d="M295 13c-75 0-135-60-135-135s60-135 135-135 135 60 135 135S370 13 295 13" id="bk"/><g id="p"><use transform="matrix(0.008173828125000001,0,0,0.008173828125000001,0,0)" xlink:href="#aG"/><use transform="matrix(0.008173828125000001,0,0,0.008173828125000001,12.08091796875,0)" xlink:href="#aI"/><use transform="matrix(0.008173828125000001,0,0,0.008173828125000001,21.84046875,0)" xlink:href="#bj"/><use transform="matrix(0.008173828125000001,0,0,0.008173828125000001,32.09044921875,0)" xlink:href="#aX"/><use transform="matrix(0.008173828125000001,0,0,0.008173828125000001,37.566914062500004,0)" xlink:href="#bk"/></g><path d="M180 0v-1490h510c348 0 508 209 508 474 0 266-160 477-507 477H370V0H180zm190-706h312c236 0 327-133 327-310 0-176-91-307-329-307H370v617" id="bl"/><g id="q"><use transform="matrix(0.008173828125000001,0,0,0.008173828125000001,0,0)" xlink:href="#bl"/><use transform="matrix(0.008173828125000001,0,0,0.008173828125000001,10.601455078125001,0)" xlink:href="#ba"/><use transform="matrix(0.008173828125000001,0,0,0.008173828125000001,20.638916015625,0)" xlink:href="#aT"/><use transform="matrix(0.008173828125000001,0,0,0.008173828125000001,24.693134765625,0)" xlink:href="#aK"/><use transform="matrix(0.008173828125000001,0,0,0.008173828125000001,28.747353515625,0)" xlink:href="#aL"/><use transform="matrix(0.008173828125000001,0,0,0.008173828125000001,38.310732421875,0)" xlink:href="#aI"/></g><path d="M180 0v-1490h510c348 0 508 194 508 460 0 198-88 351-276 417L1256 0h-220L726-579c-117 2-238 0-356 1V0H180zm190-747h312c235 0 327-108 327-283 0-177-92-293-329-293H370v576" id="bm"/><g id="r"><use transform="matrix(0.008173828125000001,0,0,0.008173828125000001,0,0)" xlink:href="#bm"/><use transform="matrix(0.008173828125000001,0,0,0.008173828125000001,10.527890625000001,0)" xlink:href="#aI"/><use transform="matrix(0.008173828125000001,0,0,0.008173828125000001,20.287441406250004,0)" xlink:href="#be"/><use transform="matrix(0.008173828125000001,0,0,0.008173828125000001,29.123349609375005,0)" xlink:href="#aL"/><use transform="matrix(0.008173828125000001,0,0,0.008173828125000001,38.686728515625006,0)" xlink:href="#bd"/><use transform="matrix(0.008173828125000001,0,0,0.008173828125000001,48.585234375000006,0)" xlink:href="#aI"/></g><path d="M653-1490V0H466v-1314h-10L96-1047v-204l324-239h233" id="bn"/><g id="s"><use transform="matrix(0.008173828125000001,0,0,0.008173828125000001,0,0)" xlink:href="#bb"/><use transform="matrix(0.008173828125000001,0,0,0.008173828125000001,10.249980468750001,0)" xlink:href="#bk"/><use transform="matrix(0.008173828125000001,0,0,0.008173828125000001,13.625771484375,0)" xlink:href="#bn"/></g><g id="t"><use transform="matrix(0.008173828125000001,0,0,0.008173828125000001,0,0)" xlink:href="#bm"/><use transform="matrix(0.008173828125000001,0,0,0.008173828125000001,10.527890625000001,0)" xlink:href="#aI"/><use transform="matrix(0.008173828125000001,0,0,0.008173828125000001,20.287441406250004,0)" xlink:href="#aL"/><use transform="matrix(0.008173828125000001,0,0,0.008173828125000001,29.850820312500005,0)" xlink:href="#aI"/><use transform="matrix(0.008173828125000001,0,0,0.008173828125000001,39.610371093750004,0)" xlink:href="#aK"/><use transform="matrix(0.008173828125000001,0,0,0.008173828125000001,43.66458984375001,0)" xlink:href="#aJ"/><use transform="matrix(0.008173828125000001,0,0,0.008173828125000001,52.74571289062501,0)" xlink:href="#aI"/></g><g id="u"><use transform="matrix(0.008173828125000001,0,0,0.008173828125000001,0,0)" xlink:href="#bm"/><use transform="matrix(0.008173828125000001,0,0,0.008173828125000001,10.773105468750002,0)" xlink:href="#aK"/><use transform="matrix(0.008173828125000001,0,0,0.008173828125000001,14.827324218750002,0)" xlink:href="#be"/><use transform="matrix(0.008173828125000001,0,0,0.008173828125000001,23.663232421875,0)" xlink:href="#aP"/></g><g id="v"><use transform="matrix(0.008173828125000001,0,0,0.008173828125000001,0,0)" xlink:href="#bf"/><use transform="matrix(0.008173828125000001,0,0,0.008173828125000001,4.495605468750001,0)" xlink:href="#aQ"/><use transform="matrix(0.008173828125000001,0,0,0.008173828125000001,14.3859375,0)" xlink:href="#bj"/><use transform="matrix(0.008173828125000001,0,0,0.008173828125000001,24.63591796875,0)" xlink:href="#bd"/><use transform="matrix(0.008173828125000001,0,0,0.008173828125000001,34.534423828125,0)" xlink:href="#aX"/></g><path d="M154 0v-137l495-537c165-179 249-281 249-418 0-156-121-253-280-253-170 0-278 110-278 278H158c0-264 200-443 465-443 266 0 455 183 455 416 0 161-73 288-336 568L416-179v12h687V0H154" id="bo"/><g id="w"><use transform="matrix(0.008173828125000001,0,0,0.008173828125000001,0,0)" xlink:href="#bb"/><use transform="matrix(0.008173828125000001,0,0,0.008173828125000001,10.249980468750001,0)" xlink:href="#bk"/><use transform="matrix(0.008173828125000001,0,0,0.008173828125000001,15.072539062500002,0)" xlink:href="#bo"/></g><path d="M783 20c-382 0-661-292-661-764 0-473 279-766 661-766 302 0 548 182 601 489h-190c-42-204-217-313-411-313-268 0-476 208-476 590 0 381 209 588 476 588 195 0 369-110 411-313h190c-52 303-296 489-601 489" id="bp"/><path d="M338-670V0H158v-1490h180v566c73-149 190-208 336-208 226 0 379 139 379 422V0H872v-695c0-172-96-275-252-275-161 0-282 109-282 300" id="bq"/><g id="x"><use transform="matrix(0.008173828125000001,0,0,0.008173828125000001,0,0)" xlink:href="#bp"/><use transform="matrix(0.008173828125000001,0,0,0.008173828125000001,12.228046875000002,0)" xlink:href="#bq"/><use transform="matrix(0.008173828125000001,0,0,0.008173828125000001,22.126552734375004,0)" xlink:href="#aI"/><use transform="matrix(0.008173828125000001,0,0,0.008173828125000001,31.886103515625003,0)" xlink:href="#aL"/><use transform="matrix(0.008173828125000001,0,0,0.008173828125000001,41.449482421875004,0)" xlink:href="#aP"/></g><g id="y"><use transform="matrix(0.008173828125000001,0,0,0.008173828125000001,0,0)" xlink:href="#aZ"/><use transform="matrix(0.008173828125000001,0,0,0.008173828125000001,10.527890625000001,0)" xlink:href="#ba"/><use transform="matrix(0.008173828125000001,0,0,0.008173828125000001,20.565351562500002,0)" xlink:href="#aQ"/><use transform="matrix(0.008173828125000001,0,0,0.008173828125000001,30.455683593750003,0)" xlink:href="#aI"/></g><path d="M580 20c-295 0-476-179-476-409 0-189 123-290 294-416-104-125-173-226-173-362 0-197 144-337 365-337 224 0 362 144 362 321 0 185-174 312-306 405l319 387c38-75 61-165 61-267h173c0 208-62 332-120 406L1287 0h-217L967-124C868-27 716 20 580 20zm279-273L507-675l-51 38c-123 91-167 162-167 254 0 147 113 246 278 246 107 0 210-41 292-116zM538-908l97-72c54-40 136-101 136-206 0-95-68-163-176-163-113 0-189 74-189 181 0 90 53 164 132 260" id="br"/><use transform="matrix(0.008173828125000001,0,0,0.008173828125000001,0,0)" xlink:href="#br" id="z"/><g id="A"><use transform="matrix(0.008173828125000001,0,0,0.008173828125000001,0,0)" xlink:href="#aM"/><use transform="matrix(0.008173828125000001,0,0,0.008173828125000001,10.805800781250001,0)" xlink:href="#bq"/><use transform="matrix(0.008173828125000001,0,0,0.008173828125000001,20.704306640625003,0)" xlink:href="#aN"/><use transform="matrix(0.008173828125000001,0,0,0.008173828125000001,26.72841796875,0)" xlink:href="#aI"/><use transform="matrix(0.008173828125000001,0,0,0.008173828125000001,36.6514453125,0)" xlink:href="#aO"/><use transform="matrix(0.008173828125000001,0,0,0.008173828125000001,46.051347656249995,0)" xlink:href="#aX"/></g><g id="B"><use transform="matrix(0.008173828125000001,0,0,0.008173828125000001,0,0)" xlink:href="#bb"/><use transform="matrix(0.008173828125000001,0,0,0.008173828125000001,10.249980468750001,0)" xlink:href="#bk"/><use transform="matrix(0.008173828125000001,0,0,0.008173828125000001,14.622978515625,0)" xlink:href="#aU"/></g><path d="M789 20c-398 0-667-293-667-764 0-473 273-766 655-766 315 0 558 198 612 487h-196c-61-191-204-311-415-311-262 0-471 207-471 590 0 380 208 588 482 588 249 0 420-165 425-427H828v-166h572v163c0 370-256 606-611 606" id="bs"/><g id="C"><use transform="matrix(0.008173828125000001,0,0,0.008173828125000001,0,0)" xlink:href="#bs"/><use transform="matrix(0.008173828125000001,0,0,0.008173828125000001,12.489609375000002,0)" xlink:href="#aI"/><use transform="matrix(0.008173828125000001,0,0,0.008173828125000001,22.249160156250003,0)" xlink:href="#aQ"/><use transform="matrix(0.008173828125000001,0,0,0.008173828125000001,32.139492187500004,0)" xlink:href="#aI"/><use transform="matrix(0.008173828125000001,0,0,0.008173828125000001,41.89904296875,0)" xlink:href="#aN"/><use transform="matrix(0.008173828125000001,0,0,0.008173828125000001,48.201064453125,0)" xlink:href="#aO"/><use transform="matrix(0.008173828125000001,0,0,0.008173828125000001,57.600966796875,0)" xlink:href="#aX"/><use transform="matrix(0.008173828125000001,0,0,0.008173828125000001,62.913955078125,0)" xlink:href="#aI"/></g><g id="D"><use transform="matrix(0.008173828125000001,0,0,0.008173828125000001,0,0)" xlink:href="#bc"/><use transform="matrix(0.008173828125000001,0,0,0.008173828125000001,11.549619140625001,0)" xlink:href="#aT"/><use transform="matrix(0.008173828125000001,0,0,0.008173828125000001,15.603837890625002,0)" xlink:href="#aI"/><use transform="matrix(0.008173828125000001,0,0,0.008173828125000001,25.363388671875,0)" xlink:href="#aN"/><use transform="matrix(0.008173828125000001,0,0,0.008173828125000001,31.92697265625,0)" xlink:href="#aX"/></g><g id="E"><use transform="matrix(0.008173828125000001,0,0,0.008173828125000001,0,0)" xlink:href="#bb"/><use transform="matrix(0.008173828125000001,0,0,0.008173828125000001,10.249980468750001,0)" xlink:href="#bk"/><use transform="matrix(0.008173828125000001,0,0,0.008173828125000001,15.072539062500002,0)" xlink:href="#bb"/></g><path d="M180 0v-1490h224l606 953c40 63 108 177 176 312-27-437-7-821-13-1265h190V0h-226C860-448 622-778 356-1262c27 476 11 792 15 1262H180" id="bt"/><g id="F"><use transform="matrix(0.008173828125000001,0,0,0.008173828125000001,0,0)" xlink:href="#bt"/><use transform="matrix(0.008173828125000001,0,0,0.008173828125000001,12.612216796875002,0)" xlink:href="#ba"/><use transform="matrix(0.008173828125000001,0,0,0.008173828125000001,22.649677734375004,0)" xlink:href="#aX"/><use transform="matrix(0.008173828125000001,0,0,0.008173828125000001,28.126142578125005,0)" xlink:href="#aK"/><use transform="matrix(0.008173828125000001,0,0,0.008173828125000001,32.180361328125,0)" xlink:href="#aW"/><use transform="matrix(0.008173828125000001,0,0,0.008173828125000001,38.376123046875,0)" xlink:href="#aY"/></g><g id="G"><use transform="matrix(0.008173828125000001,0,0,0.008173828125000001,0,0)" xlink:href="#aM"/><use transform="matrix(0.008173828125000001,0,0,0.008173828125000001,9.49798828125,0)" xlink:href="#ba"/><use transform="matrix(0.008173828125000001,0,0,0.008173828125000001,19.535449218750003,0)" xlink:href="#bd"/><use transform="matrix(0.008173828125000001,0,0,0.008173828125000001,29.433955078125003,0)" xlink:href="#aN"/><use transform="matrix(0.008173828125000001,0,0,0.008173828125000001,35.9975390625,0)" xlink:href="#aK"/><use transform="matrix(0.008173828125000001,0,0,0.008173828125000001,40.0517578125,0)" xlink:href="#be"/><use transform="matrix(0.008173828125000001,0,0,0.008173828125000001,48.887666015625,0)" xlink:href="#aX"/></g><g id="H"><use transform="matrix(0.008173828125000001,0,0,0.008173828125000001,0,0)" xlink:href="#bb"/><use transform="matrix(0.008173828125000001,0,0,0.008173828125000001,10.249980468750001,0)" xlink:href="#bk"/><use transform="matrix(0.008173828125000001,0,0,0.008173828125000001,14.835498046875003,0)" xlink:href="#aH"/></g><g id="I"><use transform="matrix(0.008173828125000001,0,0,0.008173828125000001,0,0)" xlink:href="#aG"/><use transform="matrix(0.008173828125000001,0,0,0.008173828125000001,12.08091796875,0)" xlink:href="#aK"/><use transform="matrix(0.008173828125000001,0,0,0.008173828125000001,16.13513671875,0)" xlink:href="#be"/><use transform="matrix(0.008173828125000001,0,0,0.008173828125000001,24.971044921875002,0)" xlink:href="#bj"/><use transform="matrix(0.008173828125000001,0,0,0.008173828125000001,35.384501953125,0)" xlink:href="#aO"/><use transform="matrix(0.008173828125000001,0,0,0.008173828125000001,44.784404296875,0)" xlink:href="#aX"/><use transform="matrix(0.008173828125000001,0,0,0.008173828125000001,50.097392578125,0)" xlink:href="#aL"/><use transform="matrix(0.008173828125000001,0,0,0.008173828125000001,59.660771484375005,0)" xlink:href="#bq"/></g><path d="M180 0v-1490h908v168H370v486h669v168H370v500h727V0H180" id="bu"/><g id="J"><use transform="matrix(0.008173828125000001,0,0,0.008173828125000001,0,0)" xlink:href="#bu"/><use transform="matrix(0.008173828125000001,0,0,0.008173828125000001,10.061982421875001,0)" xlink:href="#bh"/><use transform="matrix(0.008173828125000001,0,0,0.008173828125000001,24.725830078125004,0)" xlink:href="#aI"/><use transform="matrix(0.008173828125000001,0,0,0.008173828125000001,34.485380859375006,0)" xlink:href="#aN"/><use transform="matrix(0.008173828125000001,0,0,0.008173828125000001,40.50949218750001,0)" xlink:href="#aR"/><use transform="matrix(0.008173828125000001,0,0,0.008173828125000001,50.775820312499995,0)" xlink:href="#aI"/><use transform="matrix(0.008173828125000001,0,0,0.008173828125000001,60.53537109375,0)" xlink:href="#aQ"/><use transform="matrix(0.008173828125000001,0,0,0.008173828125000001,70.425703125,0)" xlink:href="#aL"/><use transform="matrix(0.008173828125000001,0,0,0.008173828125000001,79.66212890624999,0)" xlink:href="#aY"/></g><g id="K"><use transform="matrix(0.008173828125000001,0,0,0.008173828125000001,0,0)" xlink:href="#bf"/><use transform="matrix(0.008173828125000001,0,0,0.008173828125000001,4.495605468750001,0)" xlink:href="#aQ"/><use transform="matrix(0.008173828125000001,0,0,0.008173828125000001,14.3859375,0)" xlink:href="#aW"/><use transform="matrix(0.008173828125000001,0,0,0.008173828125000001,20.09126953125,0)" xlink:href="#ba"/></g><path d="M646 20c-249 0-524-159-524-708 0-524 209-822 547-822 250 0 431 161 467 395H950c-33-129-126-227-281-227-229 0-367 208-367 566h12c80-124 212-198 367-198 255 0 467 205 467 493 0 278-198 501-502 501zm0-167c179 0 318-148 318-334 0-182-133-328-313-328-181 0-322 156-322 330 0 176 134 332 317 332" id="bv"/><g id="L"><use transform="matrix(0.008173828125000001,0,0,0.008173828125000001,0,0)" xlink:href="#bb"/><use transform="matrix(0.008173828125000001,0,0,0.008173828125000001,10.249980468750001,0)" xlink:href="#bk"/><use transform="matrix(0.008173828125000001,0,0,0.008173828125000001,14.6475,0)" xlink:href="#bv"/></g><g id="M"><use transform="matrix(0.008173828125000001,0,0,0.008173828125000001,0,0)" xlink:href="#aV"/><use transform="matrix(0.008173828125000001,0,0,0.008173828125000001,10.740410156250002,0)" xlink:href="#aX"/><use transform="matrix(0.008173828125000001,0,0,0.008173828125000001,16.053398437500004,0)" xlink:href="#ba"/><use transform="matrix(0.008173828125000001,0,0,0.008173828125000001,26.090859375000004,0)" xlink:href="#aN"/><use transform="matrix(0.008173828125000001,0,0,0.008173828125000001,32.114970703125,0)" xlink:href="#aI"/></g><g id="N"><use transform="matrix(0.008173828125000001,0,0,0.008173828125000001,0,0)" xlink:href="#bc"/><use transform="matrix(0.008173828125000001,0,0,0.008173828125000001,11.549619140625001,0)" xlink:href="#aT"/><use transform="matrix(0.008173828125000001,0,0,0.008173828125000001,15.603837890625002,0)" xlink:href="#aI"/><use transform="matrix(0.008173828125000001,0,0,0.008173828125000001,25.363388671875,0)" xlink:href="#aN"/><use transform="matrix(0.008173828125000001,0,0,0.008173828125000001,31.92697265625,0)" xlink:href="#aX"/></g><g id="O"><use transform="matrix(0.008173828125000001,0,0,0.008173828125000001,0,0)" xlink:href="#bm"/><use transform="matrix(0.008173828125000001,0,0,0.008173828125000001,10.527890625000001,0)" xlink:href="#aI"/><use transform="matrix(0.008173828125000001,0,0,0.008173828125000001,20.287441406250004,0)" xlink:href="#aL"/><use transform="matrix(0.008173828125000001,0,0,0.008173828125000001,29.850820312500005,0)" xlink:href="#ba"/><use transform="matrix(0.008173828125000001,0,0,0.008173828125000001,39.888281250000006,0)" xlink:href="#aN"/><use transform="matrix(0.008173828125000001,0,0,0.008173828125000001,45.91239257812501,0)" xlink:href="#bg"/></g><path fill="#333" d="M128 418v-1536h295v188h14c41-89 129-202 319-202 248 0 453 193 453 575 0 372-197 576-455 576-183 0-275-108-317-198h-9v597H128zm534-640c156 0 240-139 240-336 0-196-83-334-240-334-154 0-241 131-241 334 0 202 88 336 241 336" id="bw"/><path fill="#333" d="M440 22C227 22 68-92 68-313c0-250 202-322 422-343 195-21 271-24 271-105 0-95-63-149-175-149-116 0-187 57-211 129l-275-46c57-194 237-305 487-305 240 0 474 108 474 379V0H777v-155h-10C713-51 605 22 440 22zm85-211c140 0 238-93 238-211v-121c-37 26-156 42-222 51-111 16-185 59-185 149 0 87 70 132 169 132" id="bx"/><path fill="#333" d="M428-647V0H128v-1118h283l4 231c63-156 176-245 348-245 232 0 384 159 384 421V0H847v-659c0-139-76-222-202-222-128 0-217 86-217 234" id="by"/><path fill="#333" d="M128 0v-1118h300V0H128zm150-1264c-91 0-165-68-165-154 0-85 74-154 165-154 90 0 165 69 165 154 0 86-75 154-165 154" id="bz"/><path fill="#333" d="M628 22C291 22 81-210 81-554c0-346 210-578 547-578 265 0 455 142 497 372l-279 52c-25-116-99-188-215-188-160 0-244 139-244 341 0 200 84 341 244 341 116 0 193-74 217-195l279 51C1085-123 896 22 628 22" id="bA"/><g id="P"><use transform="matrix(0.008680555555555556,0,0,0.008680555555555556,0,0)" xlink:href="#bw"/><use transform="matrix(0.008680555555555556,0,0,0.008680555555555556,11.380208333333334,0)" xlink:href="#bx"/><use transform="matrix(0.008680555555555556,0,0,0.008680555555555556,21.70138888888889,0)" xlink:href="#by"/><use transform="matrix(0.008680555555555556,0,0,0.008680555555555556,32.76909722222222,0)" xlink:href="#bz"/><use transform="matrix(0.008680555555555556,0,0,0.008680555555555556,37.58680555555556,0)" xlink:href="#bA"/></g><path fill="#333" d="M572 22C302 22 117-98 78-306l279-48c29 105 101 156 224 156 114 0 185-48 185-115 0-118-228-130-337-155-215-49-322-150-322-317 0-215 187-347 470-347 265 0 424 116 466 298l-266 47c-24-76-87-130-196-130-98 0-174 46-174 113 0 56 38 95 144 117l201 40c216 44 320 143 320 302 0 220-207 367-500 367" id="bB"/><path fill="#333" d="M625 442c-280 0-454-114-503-274l258-72c28 63 97 128 243 128 153 0 246-69 246-216v-206h-23C805-108 717-16 536-16 284-16 81-191 81-561c0-378 208-571 456-571 188 0 280 113 321 202h13v-188h295V-9c0 303-226 451-541 451zm5-686c153 0 240-119 240-319 0-198-86-329-240-329-158 0-241 137-241 329 0 195 85 319 241 319" id="bC"/><path fill="#333" d="M428-1490V0H128v-1490h300" id="bD"/><g id="Q"><use transform="matrix(0.008680555555555556,0,0,0.008680555555555556,0,0)" xlink:href="#bB"/><use transform="matrix(0.008680555555555556,0,0,0.008680555555555556,9.956597222222223,0)" xlink:href="#bz"/><use transform="matrix(0.008680555555555556,0,0,0.008680555555555556,14.774305555555555,0)" xlink:href="#bC"/><use transform="matrix(0.008680555555555556,0,0,0.008680555555555556,26.006944444444446,0)" xlink:href="#by"/><use transform="matrix(0.008680555555555556,0,0,0.008680555555555556,37.07465277777778,0)" xlink:href="#bx"/><use transform="matrix(0.008680555555555556,0,0,0.008680555555555556,47.395833333333336,0)" xlink:href="#bD"/></g><path fill="#333" d="M768-1560L288 224H28l480-1784h260" id="bE"/><use transform="matrix(0.008680555555555556,0,0,0.008680555555555556,0,0)" xlink:href="#bE" id="R"/><path fill="#333" d="M443 0L31-1118h319c90 293 199 572 268 885 66-313 175-593 264-885h315L784 0H443" id="bF"/><path fill="#333" d="M633 22C291 22 81-200 81-553c0-345 210-579 537-579 292 0 525 185 525 567v84H378c7 183 109 277 260 277 105 0 184-46 216-132l272 51C1071-99 893 22 633 22zM380-669h474c-15-146-94-237-233-237-143 0-229 99-241 237" id="bG"/><g id="S"><use transform="matrix(0.008680555555555556,0,0,0.008680555555555556,0,0)" xlink:href="#bD"/><use transform="matrix(0.008680555555555556,0,0,0.008680555555555556,4.817708333333334,0)" xlink:href="#bz"/><use transform="matrix(0.008680555555555556,0,0,0.008680555555555556,9.635416666666668,0)" xlink:href="#bF"/><use transform="matrix(0.008680555555555556,0,0,0.008680555555555556,19.973958333333336,0)" xlink:href="#bG"/></g><path fill="#333" d="M628 22C291 22 81-210 81-554c0-346 210-578 547-578 336 0 547 232 547 578 0 344-211 576-547 576zm0-236c160 0 242-146 242-341 0-197-82-341-242-341S387-753 387-555c0 195 81 341 241 341" id="bH"/><path fill="#333" d="M683-1118v229H474v562c0 71 29 104 102 104 23 0 73-7 95-13l43 225C647 9 580 16 520 16 296 16 174-96 174-301v-588H20v-229h154v-266h300v266h209" id="bI"/><g id="T"><use transform="matrix(0.008680555555555556,0,0,0.008680555555555556,0,0)" xlink:href="#bD"/><use transform="matrix(0.008680555555555556,0,0,0.008680555555555556,4.817708333333334,0)" xlink:href="#bH"/><use transform="matrix(0.008680555555555556,0,0,0.008680555555555556,15.720486111111112,0)" xlink:href="#bA"/><use transform="matrix(0.008680555555555556,0,0,0.008680555555555556,26.354166666666668,0)" xlink:href="#bx"/><use transform="matrix(0.008680555555555556,0,0,0.008680555555555556,36.67534722222222,0)" xlink:href="#bI"/><use transform="matrix(0.008680555555555556,0,0,0.008680555555555556,43.185763888888886,0)" xlink:href="#bz"/><use transform="matrix(0.008680555555555556,0,0,0.008680555555555556,48.00347222222222,0)" xlink:href="#bH"/><use transform="matrix(0.008680555555555556,0,0,0.008680555555555556,58.90625,0)" xlink:href="#by"/></g><path fill="#333" d="M537 19C279 19 81-185 81-557c0-382 206-575 454-575 190 0 278 113 318 202h10v-560h300V0H868v-179h-15C812-89 719 19 537 19zm92-241c153 0 240-134 240-336 0-203-86-334-240-334-158 0-240 138-240 334 0 197 84 336 240 336" id="bJ"/><path fill="#333" d="M128 0v-1118h290v195h12c54-169 184-238 367-200v268c-27-8-86-15-130-15-138 0-239 95-239 234V0H128" id="bK"/><g id="U"><use transform="matrix(0.008680555555555556,0,0,0.008680555555555556,0,0)" xlink:href="#bJ"/><use transform="matrix(0.008680555555555556,0,0,0.008680555555555556,11.206597222222223,0)" xlink:href="#bz"/><use transform="matrix(0.008680555555555556,0,0,0.008680555555555556,16.024305555555557,0)" xlink:href="#bB"/><use transform="matrix(0.008680555555555556,0,0,0.008680555555555556,25.98090277777778,0)" xlink:href="#bI"/><use transform="matrix(0.008680555555555556,0,0,0.008680555555555556,32.49131944444444,0)" xlink:href="#bK"/><use transform="matrix(0.008680555555555556,0,0,0.008680555555555556,39.296875,0)" xlink:href="#bG"/><use transform="matrix(0.008680555555555556,0,0,0.008680555555555556,49.88715277777778,0)" xlink:href="#bB"/><use transform="matrix(0.008680555555555556,0,0,0.008680555555555556,59.84375,0)" xlink:href="#bB"/></g><use transform="matrix(0.008680555555555556,0,0,0.008680555555555556,0,0)" xlink:href="#bE" id="V"/><path fill="#333" d="M128 0v-1490h300v802h17l366-430h347L740-633 1179 0H826L514-456l-86 97V0H128" id="bL"/><g id="W"><use transform="matrix(0.008680555555555556,0,0,0.008680555555555556,0,0)" xlink:href="#bI"/><use transform="matrix(0.008680555555555556,0,0,0.008680555555555556,6.510416666666667,0)" xlink:href="#bK"/><use transform="matrix(0.008680555555555556,0,0,0.008680555555555556,13.506944444444446,0)" xlink:href="#bx"/><use transform="matrix(0.008680555555555556,0,0,0.008680555555555556,23.828125,0)" xlink:href="#bA"/><use transform="matrix(0.008680555555555556,0,0,0.008680555555555556,34.28819444444444,0)" xlink:href="#bL"/><use transform="matrix(0.008680555555555556,0,0,0.008680555555555556,44.60069444444445,0)" xlink:href="#bz"/><use transform="matrix(0.008680555555555556,0,0,0.008680555555555556,49.41840277777778,0)" xlink:href="#by"/><use transform="matrix(0.008680555555555556,0,0,0.008680555555555556,60.486111111111114,0)" xlink:href="#bC"/></g><g id="X"><use transform="matrix(0.008680555555555556,0,0,0.008680555555555556,0,0)" xlink:href="#bJ"/><use transform="matrix(0.008680555555555556,0,0,0.008680555555555556,11.206597222222223,0)" xlink:href="#bx"/><use transform="matrix(0.008680555555555556,0,0,0.008680555555555556,21.52777777777778,0)" xlink:href="#bI"/><use transform="matrix(0.008680555555555556,0,0,0.008680555555555556,28.125000000000004,0)" xlink:href="#bx"/></g><path fill="#333" d="M513 14c-232 0-385-159-385-421v-711h300v659c0 139 76 222 202 222 127 0 217-86 217-234v-647h301V0H864l-4-232C797-74 683 14 513 14" id="bM"/><g id="Y"><use transform="matrix(0.008680555555555556,0,0,0.008680555555555556,0,0)" xlink:href="#bM"/><use transform="matrix(0.008680555555555556,0,0,0.008680555555555556,11.067708333333334,0)" xlink:href="#bw"/><use transform="matrix(0.008680555555555556,0,0,0.008680555555555556,22.274305555555557,0)" xlink:href="#bJ"/><use transform="matrix(0.008680555555555556,0,0,0.008680555555555556,33.48090277777778,0)" xlink:href="#bx"/><use transform="matrix(0.008680555555555556,0,0,0.008680555555555556,43.802083333333336,0)" xlink:href="#bI"/><use transform="matrix(0.008680555555555556,0,0,0.008680555555555556,50.138888888888886,0)" xlink:href="#bG"/><use transform="matrix(0.008680555555555556,0,0,0.008680555555555556,60.729166666666664,0)" xlink:href="#bJ"/></g><g id="aa"><use transform="matrix(0.008680555555555556,0,0,0.008680555555555556,0,0)" xlink:href="#bK"/><use transform="matrix(0.008680555555555556,0,0,0.008680555555555556,7.369791666666667,0)" xlink:href="#bz"/><use transform="matrix(0.008680555555555556,0,0,0.008680555555555556,12.1875,0)" xlink:href="#bB"/><use transform="matrix(0.008680555555555556,0,0,0.008680555555555556,22.14409722222222,0)" xlink:href="#bL"/></g><g id="ab"><use transform="matrix(0.008680555555555556,0,0,0.008680555555555556,0,0)" xlink:href="#bK"/><use transform="matrix(0.008680555555555556,0,0,0.008680555555555556,7.239583333333334,0)" xlink:href="#bM"/><use transform="matrix(0.008680555555555556,0,0,0.008680555555555556,18.307291666666668,0)" xlink:href="#bD"/><use transform="matrix(0.008680555555555556,0,0,0.008680555555555556,23.125,0)" xlink:href="#bG"/><use transform="matrix(0.008680555555555556,0,0,0.008680555555555556,33.71527777777778,0)" xlink:href="#bB"/></g><g id="ac"><use transform="matrix(0.008680555555555556,0,0,0.008680555555555556,0,0)" xlink:href="#bK"/><use transform="matrix(0.008680555555555556,0,0,0.008680555555555556,6.805555555555556,0)" xlink:href="#bG"/><use transform="matrix(0.008680555555555556,0,0,0.008680555555555556,17.395833333333336,0)" xlink:href="#bB"/><use transform="matrix(0.008680555555555556,0,0,0.008680555555555556,27.352430555555557,0)" xlink:href="#bw"/><use transform="matrix(0.008680555555555556,0,0,0.008680555555555556,38.55902777777778,0)" xlink:href="#bH"/><use transform="matrix(0.008680555555555556,0,0,0.008680555555555556,49.46180555555556,0)" xlink:href="#by"/><use transform="matrix(0.008680555555555556,0,0,0.008680555555555556,60.52951388888889,0)" xlink:href="#bB"/><use transform="matrix(0.008680555555555556,0,0,0.008680555555555556,70.48611111111111,0)" xlink:href="#bG"/></g><g id="ad"><use transform="matrix(0.008680555555555556,0,0,0.008680555555555556,0,0)" xlink:href="#bM"/><use transform="matrix(0.008680555555555556,0,0,0.008680555555555556,11.067708333333334,0)" xlink:href="#bw"/><use transform="matrix(0.008680555555555556,0,0,0.008680555555555556,22.274305555555557,0)" xlink:href="#bJ"/><use transform="matrix(0.008680555555555556,0,0,0.008680555555555556,33.48090277777778,0)" xlink:href="#bx"/><use transform="matrix(0.008680555555555556,0,0,0.008680555555555556,43.802083333333336,0)" xlink:href="#bI"/><use transform="matrix(0.008680555555555556,0,0,0.008680555555555556,50.138888888888886,0)" xlink:href="#bG"/></g><g id="ae"><use transform="matrix(0.008680555555555556,0,0,0.008680555555555556,0,0)" xlink:href="#bK"/><use transform="matrix(0.008680555555555556,0,0,0.008680555555555556,7.369791666666667,0)" xlink:href="#bz"/><use transform="matrix(0.008680555555555556,0,0,0.008680555555555556,12.1875,0)" xlink:href="#bB"/><use transform="matrix(0.008680555555555556,0,0,0.008680555555555556,22.14409722222222,0)" xlink:href="#bL"/></g><g id="af"><use transform="matrix(0.008680555555555556,0,0,0.008680555555555556,0,0)" xlink:href="#bz"/><use transform="matrix(0.008680555555555556,0,0,0.008680555555555556,4.817708333333334,0)" xlink:href="#by"/><use transform="matrix(0.008680555555555556,0,0,0.008680555555555556,15.885416666666668,0)" xlink:href="#bw"/><use transform="matrix(0.008680555555555556,0,0,0.008680555555555556,27.092013888888893,0)" xlink:href="#bM"/><use transform="matrix(0.008680555555555556,0,0,0.008680555555555556,38.15972222222223,0)" xlink:href="#bI"/></g><path fill="#333" d="M428-647V0H128v-1490h294v586c65-146 175-228 341-228 232 0 385 159 385 421V0H847v-659c0-139-76-222-202-222-128 0-217 86-217 234" id="bN"/><g id="ag"><use transform="matrix(0.008680555555555556,0,0,0.008680555555555556,0,0)" xlink:href="#bI"/><use transform="matrix(0.008680555555555556,0,0,0.008680555555555556,6.553819444444445,0)" xlink:href="#bN"/><use transform="matrix(0.008680555555555556,0,0,0.008680555555555556,17.62152777777778,0)" xlink:href="#bK"/><use transform="matrix(0.008680555555555556,0,0,0.008680555555555556,24.427083333333336,0)" xlink:href="#bG"/><use transform="matrix(0.008680555555555556,0,0,0.008680555555555556,35.19097222222223,0)" xlink:href="#bx"/><use transform="matrix(0.008680555555555556,0,0,0.008680555555555556,45.512152777777786,0)" xlink:href="#bI"/></g><g id="ah"><use transform="matrix(0.008680555555555556,0,0,0.008680555555555556,0,0)" xlink:href="#bK"/><use transform="matrix(0.008680555555555556,0,0,0.008680555555555556,6.805555555555556,0)" xlink:href="#bG"/><use transform="matrix(0.008680555555555556,0,0,0.008680555555555556,17.395833333333336,0)" xlink:href="#bB"/><use transform="matrix(0.008680555555555556,0,0,0.008680555555555556,27.352430555555557,0)" xlink:href="#bM"/><use transform="matrix(0.008680555555555556,0,0,0.008680555555555556,38.42013888888889,0)" xlink:href="#bD"/><use transform="matrix(0.008680555555555556,0,0,0.008680555555555556,43.49826388888889,0)" xlink:href="#bI"/></g><g id="ai"><use transform="matrix(0.008680555555555556,0,0,0.008680555555555556,0,0)" xlink:href="#bx"/><use transform="matrix(0.008680555555555556,0,0,0.008680555555555556,10.321180555555555,0)" xlink:href="#bD"/><use transform="matrix(0.008680555555555556,0,0,0.008680555555555556,15.13888888888889,0)" xlink:href="#bG"/><use transform="matrix(0.008680555555555556,0,0,0.008680555555555556,25.729166666666668,0)" xlink:href="#bK"/><use transform="matrix(0.008680555555555556,0,0,0.008680555555555556,33.31597222222222,0)" xlink:href="#bI"/></g><path fill="#333" d="M128 0v-1118h278l12 217c60-163 185-234 319-234 143 0 236 81 288 251 63-172 205-251 359-251 205 0 357 138 357 381V0h-301v-697c0-126-76-187-177-187-114 0-184 79-184 196V0H789v-705c0-109-72-179-174-179-106 0-187 74-187 208V0H128" id="bO"/><g id="aj"><use transform="matrix(0.008680555555555556,0,0,0.008680555555555556,0,0)" xlink:href="#bO"/><use transform="matrix(0.008680555555555556,0,0,0.008680555555555556,16.223958333333336,0)" xlink:href="#bG"/><use transform="matrix(0.008680555555555556,0,0,0.008680555555555556,26.81423611111111,0)" xlink:href="#bB"/><use transform="matrix(0.008680555555555556,0,0,0.008680555555555556,36.770833333333336,0)" xlink:href="#bB"/><use transform="matrix(0.008680555555555556,0,0,0.008680555555555556,46.72743055555556,0)" xlink:href="#bx"/><use transform="matrix(0.008680555555555556,0,0,0.008680555555555556,57.048611111111114,0)" xlink:href="#bC"/><use transform="matrix(0.008680555555555556,0,0,0.008680555555555556,68.28125,0)" xlink:href="#bG"/></g><path fill="#333" d="M120 396l69-226c123 42 245 23 254-107l8-60L31-1118h319c87 288 199 559 259 872 72-308 185-583 277-872h315L726 132c-68 181-186 294-410 294-79 0-153-13-196-30" id="bP"/><g id="ak"><use transform="matrix(0.008680555555555556,0,0,0.008680555555555556,0,0)" xlink:href="#bG"/><use transform="matrix(0.008680555555555556,0,0,0.008680555555555556,10.590277777777779,0)" xlink:href="#bO"/><use transform="matrix(0.008680555555555556,0,0,0.008680555555555556,26.81423611111111,0)" xlink:href="#bG"/><use transform="matrix(0.008680555555555556,0,0,0.008680555555555556,37.40451388888889,0)" xlink:href="#bK"/><use transform="matrix(0.008680555555555556,0,0,0.008680555555555556,44.21006944444444,0)" xlink:href="#bC"/><use transform="matrix(0.008680555555555556,0,0,0.008680555555555556,55.44270833333334,0)" xlink:href="#bG"/><use transform="matrix(0.008680555555555556,0,0,0.008680555555555556,66.03298611111111,0)" xlink:href="#by"/><use transform="matrix(0.008680555555555556,0,0,0.008680555555555556,77.10069444444444,0)" xlink:href="#bA"/><use transform="matrix(0.008680555555555556,0,0,0.008680555555555556,87.23958333333331,0)" xlink:href="#bP"/></g><g id="al"><use transform="matrix(0.008680555555555556,0,0,0.008680555555555556,0,0)" xlink:href="#bx"/><use transform="matrix(0.008680555555555556,0,0,0.008680555555555556,10.321180555555555,0)" xlink:href="#bD"/><use transform="matrix(0.008680555555555556,0,0,0.008680555555555556,15.13888888888889,0)" xlink:href="#bG"/><use transform="matrix(0.008680555555555556,0,0,0.008680555555555556,25.729166666666668,0)" xlink:href="#bK"/><use transform="matrix(0.008680555555555556,0,0,0.008680555555555556,33.31597222222222,0)" xlink:href="#bI"/></g><g id="am"><use transform="matrix(0.008680555555555556,0,0,0.008680555555555556,0,0)" xlink:href="#bx"/><use transform="matrix(0.008680555555555556,0,0,0.008680555555555556,10.321180555555555,0)" xlink:href="#bD"/><use transform="matrix(0.008680555555555556,0,0,0.008680555555555556,15.13888888888889,0)" xlink:href="#bG"/><use transform="matrix(0.008680555555555556,0,0,0.008680555555555556,25.729166666666668,0)" xlink:href="#bK"/><use transform="matrix(0.008680555555555556,0,0,0.008680555555555556,33.31597222222222,0)" xlink:href="#bI"/></g><g id="an"><use transform="matrix(0.008680555555555556,0,0,0.008680555555555556,0,0)" xlink:href="#bK"/><use transform="matrix(0.008680555555555556,0,0,0.008680555555555556,6.805555555555556,0)" xlink:href="#bG"/><use transform="matrix(0.008680555555555556,0,0,0.008680555555555556,17.395833333333336,0)" xlink:href="#bA"/><use transform="matrix(0.008680555555555556,0,0,0.008680555555555556,27.85590277777778,0)" xlink:href="#bH"/><use transform="matrix(0.008680555555555556,0,0,0.008680555555555556,38.75868055555556,0)" xlink:href="#bK"/><use transform="matrix(0.008680555555555556,0,0,0.008680555555555556,45.564236111111114,0)" xlink:href="#bJ"/></g><path fill="#333" d="M361 0L31-1118h315c68 295 127 523 188 845 63-317 128-551 199-845h276c71 296 131 525 196 846 57-321 119-552 186-846h319L1378 0h-305c-73-261-148-486-204-771C813-484 740-261 666 0H361" id="bQ"/><g id="ao"><use transform="matrix(0.008680555555555556,0,0,0.008680555555555556,0,0)" xlink:href="#bQ"/><use transform="matrix(0.008680555555555556,0,0,0.008680555555555556,15.069444444444445,0)" xlink:href="#bx"/><use transform="matrix(0.008680555555555556,0,0,0.008680555555555556,25.390625,0)" xlink:href="#bK"/><use transform="matrix(0.008680555555555556,0,0,0.008680555555555556,32.760416666666664,0)" xlink:href="#by"/><use transform="matrix(0.008680555555555556,0,0,0.008680555555555556,43.828125,0)" xlink:href="#bz"/><use transform="matrix(0.008680555555555556,0,0,0.008680555555555556,48.645833333333336,0)" xlink:href="#by"/><use transform="matrix(0.008680555555555556,0,0,0.008680555555555556,59.71354166666667,0)" xlink:href="#bC"/></g><path fill="#333" d="M750-1118v229H516V0H217v-889H20v-229h197v-86c0-238 156-356 363-356 94 0 178 20 215 31l-54 226c-25-7-61-15-100-15-123-3-131 84-125 200h234" id="bR"/><g id="ap"><use transform="matrix(0.008680555555555556,0,0,0.008680555555555556,0,0)" xlink:href="#bB"/><use transform="matrix(0.008680555555555556,0,0,0.008680555555555556,9.956597222222223,0)" xlink:href="#bx"/><use transform="matrix(0.008680555555555556,0,0,0.008680555555555556,20.27777777777778,0)" xlink:href="#bR"/><use transform="matrix(0.008680555555555556,0,0,0.008680555555555556,26.97048611111111,0)" xlink:href="#bG"/><use transform="matrix(0.008680555555555556,0,0,0.008680555555555556,37.56076388888889,0)" xlink:href="#bI"/><use transform="matrix(0.008680555555555556,0,0,0.008680555555555556,44.46180555555556,0)" xlink:href="#bP"/></g><g id="aq"><use transform="matrix(0.008680555555555556,0,0,0.008680555555555556,0,0)" xlink:href="#bx"/><use transform="matrix(0.008680555555555556,0,0,0.008680555555555556,10.321180555555555,0)" xlink:href="#bD"/><use transform="matrix(0.008680555555555556,0,0,0.008680555555555556,15.13888888888889,0)" xlink:href="#bG"/><use transform="matrix(0.008680555555555556,0,0,0.008680555555555556,25.729166666666668,0)" xlink:href="#bK"/><use transform="matrix(0.008680555555555556,0,0,0.008680555555555556,33.31597222222222,0)" xlink:href="#bI"/></g><g id="ar"><use transform="matrix(0.008680555555555556,0,0,0.008680555555555556,0,0)" xlink:href="#bD"/><use transform="matrix(0.008680555555555556,0,0,0.008680555555555556,4.817708333333334,0)" xlink:href="#bz"/><use transform="matrix(0.008680555555555556,0,0,0.008680555555555556,9.635416666666668,0)" xlink:href="#bF"/><use transform="matrix(0.008680555555555556,0,0,0.008680555555555556,19.973958333333336,0)" xlink:href="#bG"/></g><g id="as"><use transform="matrix(0.008680555555555556,0,0,0.008680555555555556,0,0)" xlink:href="#bG"/><use transform="matrix(0.008680555555555556,0,0,0.008680555555555556,10.590277777777779,0)" xlink:href="#bO"/><use transform="matrix(0.008680555555555556,0,0,0.008680555555555556,26.81423611111111,0)" xlink:href="#bG"/><use transform="matrix(0.008680555555555556,0,0,0.008680555555555556,37.40451388888889,0)" xlink:href="#bK"/><use transform="matrix(0.008680555555555556,0,0,0.008680555555555556,44.21006944444444,0)" xlink:href="#bC"/><use transform="matrix(0.008680555555555556,0,0,0.008680555555555556,55.44270833333334,0)" xlink:href="#bG"/><use transform="matrix(0.008680555555555556,0,0,0.008680555555555556,66.03298611111111,0)" xlink:href="#by"/><use transform="matrix(0.008680555555555556,0,0,0.008680555555555556,77.10069444444444,0)" xlink:href="#bA"/><use transform="matrix(0.008680555555555556,0,0,0.008680555555555556,87.23958333333331,0)" xlink:href="#bP"/></g><g id="at"><use transform="matrix(0.008680555555555556,0,0,0.008680555555555556,0,0)" xlink:href="#bJ"/><use transform="matrix(0.008680555555555556,0,0,0.008680555555555556,11.206597222222223,0)" xlink:href="#bG"/><use transform="matrix(0.008680555555555556,0,0,0.008680555555555556,21.796875,0)" xlink:href="#bI"/><use transform="matrix(0.008680555555555556,0,0,0.008680555555555556,28.394097222222225,0)" xlink:href="#bx"/><use transform="matrix(0.008680555555555556,0,0,0.008680555555555556,38.71527777777778,0)" xlink:href="#bz"/><use transform="matrix(0.008680555555555556,0,0,0.008680555555555556,43.532986111111114,0)" xlink:href="#bD"/><use transform="matrix(0.008680555555555556,0,0,0.008680555555555556,48.35069444444445,0)" xlink:href="#bB"/></g><g id="au"><use transform="matrix(0.008680555555555556,0,0,0.008680555555555556,0,0)" xlink:href="#bz"/><use transform="matrix(0.008680555555555556,0,0,0.008680555555555556,4.817708333333334,0)" xlink:href="#by"/><use transform="matrix(0.008680555555555556,0,0,0.008680555555555556,15.885416666666668,0)" xlink:href="#bA"/><use transform="matrix(0.008680555555555556,0,0,0.008680555555555556,26.345486111111118,0)" xlink:href="#bz"/><use transform="matrix(0.008680555555555556,0,0,0.008680555555555556,31.16319444444445,0)" xlink:href="#bJ"/><use transform="matrix(0.008680555555555556,0,0,0.008680555555555556,42.36979166666667,0)" xlink:href="#bG"/><use transform="matrix(0.008680555555555556,0,0,0.008680555555555556,52.96006944444445,0)" xlink:href="#by"/><use transform="matrix(0.008680555555555556,0,0,0.008680555555555556,64.02777777777779,0)" xlink:href="#bI"/></g><g id="av"><use transform="matrix(0.008680555555555556,0,0,0.008680555555555556,0,0)" xlink:href="#by"/><use transform="matrix(0.008680555555555556,0,0,0.008680555555555556,11.067708333333334,0)" xlink:href="#bH"/><use transform="matrix(0.008680555555555556,0,0,0.008680555555555556,21.970486111111114,0)" xlink:href="#bI"/><use transform="matrix(0.008680555555555556,0,0,0.008680555555555556,28.480902777777782,0)" xlink:href="#bz"/><use transform="matrix(0.008680555555555556,0,0,0.008680555555555556,33.298611111111114,0)" xlink:href="#bR"/><use transform="matrix(0.008680555555555556,0,0,0.008680555555555556,40.520833333333336,0)" xlink:href="#bz"/><use transform="matrix(0.008680555555555556,0,0,0.008680555555555556,45.33854166666667,0)" xlink:href="#bA"/><use transform="matrix(0.008680555555555556,0,0,0.008680555555555556,55.97222222222222,0)" xlink:href="#bx"/><use transform="matrix(0.008680555555555556,0,0,0.008680555555555556,66.29340277777779,0)" xlink:href="#bI"/><use transform="matrix(0.008680555555555556,0,0,0.008680555555555556,72.80381944444446,0)" xlink:href="#bz"/><use transform="matrix(0.008680555555555556,0,0,0.008680555555555556,77.62152777777779,0)" xlink:href="#bH"/><use transform="matrix(0.008680555555555556,0,0,0.008680555555555556,88.52430555555557,0)" xlink:href="#by"/></g><g id="aw"><use transform="matrix(0.008680555555555556,0,0,0.008680555555555556,0,0)" xlink:href="#bI"/><use transform="matrix(0.008680555555555556,0,0,0.008680555555555556,6.510416666666667,0)" xlink:href="#bK"/><use transform="matrix(0.008680555555555556,0,0,0.008680555555555556,13.506944444444446,0)" xlink:href="#bx"/><use transform="matrix(0.008680555555555556,0,0,0.008680555555555556,23.828125,0)" xlink:href="#bA"/><use transform="matrix(0.008680555555555556,0,0,0.008680555555555556,34.28819444444444,0)" xlink:href="#bL"/><use transform="matrix(0.008680555555555556,0,0,0.008680555555555556,44.60069444444445,0)" xlink:href="#bz"/><use transform="matrix(0.008680555555555556,0,0,0.008680555555555556,49.41840277777778,0)" xlink:href="#by"/><use transform="matrix(0.008680555555555556,0,0,0.008680555555555556,60.486111111111114,0)" xlink:href="#bC"/></g><g id="ax"><use transform="matrix(0.008680555555555556,0,0,0.008680555555555556,0,0)" xlink:href="#bJ"/><use transform="matrix(0.008680555555555556,0,0,0.008680555555555556,11.206597222222223,0)" xlink:href="#bG"/><use transform="matrix(0.008680555555555556,0,0,0.008680555555555556,21.475694444444446,0)" xlink:href="#bF"/><use transform="matrix(0.008680555555555556,0,0,0.008680555555555556,32.13541666666667,0)" xlink:href="#bz"/><use transform="matrix(0.008680555555555556,0,0,0.008680555555555556,36.95312500000001,0)" xlink:href="#bA"/><use transform="matrix(0.008680555555555556,0,0,0.008680555555555556,47.41319444444445,0)" xlink:href="#bG"/></g><g id="ay"><use transform="matrix(0.008680555555555556,0,0,0.008680555555555556,0,0)" xlink:href="#bw"/><use transform="matrix(0.008680555555555556,0,0,0.008680555555555556,11.380208333333334,0)" xlink:href="#bx"/><use transform="matrix(0.008680555555555556,0,0,0.008680555555555556,21.70138888888889,0)" xlink:href="#bz"/><use transform="matrix(0.008680555555555556,0,0,0.008680555555555556,26.519097222222225,0)" xlink:href="#bK"/><use transform="matrix(0.008680555555555556,0,0,0.008680555555555556,33.888888888888886,0)" xlink:href="#bz"/><use transform="matrix(0.008680555555555556,0,0,0.008680555555555556,38.70659722222222,0)" xlink:href="#by"/><use transform="matrix(0.008680555555555556,0,0,0.008680555555555556,49.77430555555556,0)" xlink:href="#bC"/></g><path fill="#333" d="M120 0v-182l551-686v-8H137v-242h897v199L514-250v8h539V0H120" id="bS"/><g id="az"><use transform="matrix(0.008680555555555556,0,0,0.008680555555555556,0,0)" xlink:href="#bS"/><use transform="matrix(0.008680555555555556,0,0,0.008680555555555556,9.82638888888889,0)" xlink:href="#bH"/><use transform="matrix(0.008680555555555556,0,0,0.008680555555555556,20.729166666666668,0)" xlink:href="#by"/><use transform="matrix(0.008680555555555556,0,0,0.008680555555555556,31.796875,0)" xlink:href="#bG"/></g><path fill="#333" d="M754 19C571 19 479-89 437-179h-14V0H128v-1490h300v560h9c41-89 129-202 319-202 248 0 453 193 453 575 0 372-197 576-455 576zm-92-241c156 0 240-139 240-336 0-196-83-334-240-334-154 0-241 131-241 334 0 202 88 336 241 336" id="bT"/><g id="aA"><use transform="matrix(0.008680555555555556,0,0,0.008680555555555556,0,0)" xlink:href="#bT"/><use transform="matrix(0.008680555555555556,0,0,0.008680555555555556,11.206597222222223,0)" xlink:href="#bH"/><use transform="matrix(0.008680555555555556,0,0,0.008680555555555556,22.109375,0)" xlink:href="#bM"/><use transform="matrix(0.008680555555555556,0,0,0.008680555555555556,33.177083333333336,0)" xlink:href="#by"/><use transform="matrix(0.008680555555555556,0,0,0.008680555555555556,44.24479166666667,0)" xlink:href="#bJ"/><use transform="matrix(0.008680555555555556,0,0,0.008680555555555556,55.45138888888889,0)" xlink:href="#bx"/><use transform="matrix(0.008680555555555556,0,0,0.008680555555555556,65.77256944444444,0)" xlink:href="#bK"/><use transform="matrix(0.008680555555555556,0,0,0.008680555555555556,73.28993055555554,0)" xlink:href="#bP"/></g><g id="aB"><use transform="matrix(0.008680555555555556,0,0,0.008680555555555556,0,0)" xlink:href="#bE"/><use transform="matrix(0.008680555555555556,0,0,0.008680555555555556,6.901041666666667,0)" xlink:href="#bK"/><use transform="matrix(0.008680555555555556,0,0,0.008680555555555556,14.270833333333334,0)" xlink:href="#bz"/><use transform="matrix(0.008680555555555556,0,0,0.008680555555555556,19.088541666666668,0)" xlink:href="#bB"/><use transform="matrix(0.008680555555555556,0,0,0.008680555555555556,29.045138888888893,0)" xlink:href="#bL"/></g><g id="aC"><use transform="matrix(0.008680555555555556,0,0,0.008680555555555556,0,0)" xlink:href="#bB"/><use transform="matrix(0.008680555555555556,0,0,0.008680555555555556,9.956597222222223,0)" xlink:href="#bI"/><use transform="matrix(0.008680555555555556,0,0,0.008680555555555556,16.29340277777778,0)" xlink:href="#bH"/><use transform="matrix(0.008680555555555556,0,0,0.008680555555555556,27.196180555555557,0)" xlink:href="#bK"/><use transform="matrix(0.008680555555555556,0,0,0.008680555555555556,34.001736111111114,0)" xlink:href="#bG"/><use transform="matrix(0.008680555555555556,0,0,0.008680555555555556,44.59201388888889,0)" xlink:href="#bJ"/></g><g id="aD"><use transform="matrix(0.008680555555555556,0,0,0.008680555555555556,0,0)" xlink:href="#bN"/><use transform="matrix(0.008680555555555556,0,0,0.008680555555555556,11.067708333333334,0)" xlink:href="#bz"/><use transform="matrix(0.008680555555555556,0,0,0.008680555555555556,15.885416666666668,0)" xlink:href="#bB"/><use transform="matrix(0.008680555555555556,0,0,0.008680555555555556,25.842013888888893,0)" xlink:href="#bI"/><use transform="matrix(0.008680555555555556,0,0,0.008680555555555556,32.17881944444445,0)" xlink:href="#bH"/><use transform="matrix(0.008680555555555556,0,0,0.008680555555555556,43.08159722222223,0)" xlink:href="#bK"/><use transform="matrix(0.008680555555555556,0,0,0.008680555555555556,50.59895833333334,0)" xlink:href="#bP"/></g><g id="aE"><use transform="matrix(0.008680555555555556,0,0,0.008680555555555556,0,0)" xlink:href="#bA"/><use transform="matrix(0.008680555555555556,0,0,0.008680555555555556,10.633680555555555,0)" xlink:href="#bx"/><use transform="matrix(0.008680555555555556,0,0,0.008680555555555556,20.95486111111111,0)" xlink:href="#bB"/><use transform="matrix(0.008680555555555556,0,0,0.008680555555555556,30.911458333333336,0)" xlink:href="#bG"/></g><g id="aF"><use transform="matrix(0.008680555555555556,0,0,0.008680555555555556,0,0)" xlink:href="#bK"/><use transform="matrix(0.008680555555555556,0,0,0.008680555555555556,6.805555555555556,0)" xlink:href="#bG"/><use transform="matrix(0.008680555555555556,0,0,0.008680555555555556,17.395833333333336,0)" xlink:href="#bA"/><use transform="matrix(0.008680555555555556,0,0,0.008680555555555556,27.85590277777778,0)" xlink:href="#bH"/><use transform="matrix(0.008680555555555556,0,0,0.008680555555555556,38.75868055555556,0)" xlink:href="#bK"/><use transform="matrix(0.008680555555555556,0,0,0.008680555555555556,45.564236111111114,0)" xlink:href="#bJ"/></g></defs></g></svg>