<svg xmlns="http://www.w3.org/2000/svg" xmlns:xlink="http://www.w3.org/1999/xlink" xmlns:ev="http://www.w3.org/2001/xml-events" width="1151.4173228346458" height="758" viewBox="0 0 1151.4173228346458 758"><defs/><g transform="translate(5,5)" id="page1"><rect x="0" y="0" width="1141" height="748" fill="#0b050b" stroke="#808080"/><g transform="translate(437.40,258.00)" id="shape1"><path fill="#2b3601" d="M0,116.5C0,52.1,52.1,0,116.5,0C180.8,0,233,52.1,233,116.5C233,180.8,180.8,233,116.5,233C52.1,233,0,180.8,0,116.5Z" stroke="#cae67d" stroke-width="2"/><text xmlns="http://www.w3.org/2000/svg" xml:space="preserve"><tspan x="25.98750114440918" y="108.50000001191802" textLength="187.70000457763672" style="fill:rgb(255, 255, 255);font-family:Arial;font-size:18pt;font-weight:bold;">0. Smart Tourist </tspan><tspan x="11.087500095367432" y="137.30000038146682" textLength="210.8125057220459" style="fill:rgb(255, 255, 255);font-family:Arial;font-size:18pt;font-weight:bold;">Protection System</tspan></text></g><g transform="translate(5.90,19.00)" id="shape2"><path fill="#2b3601" d="M250,150L250,0L0,0L0,150L250,150Z" stroke="#cae67d" stroke-width="2"/><text xmlns="http://www.w3.org/2000/svg" xml:space="preserve"><tspan x="36.92499923706055" y="81.40000001191947" textLength="176.15000438690186" style="fill:rgb(255, 255, 255);font-family:Arial;font-size:18pt;font-weight:bold;">Police / Rescue</tspan></text></g><g transform="translate(852.90,19.00)" id="shape3"><path fill="#2b3601" d="M268,150L268,0L0,0L0,150L268,150Z" stroke="#cae67d" stroke-width="2"/><text xmlns="http://www.w3.org/2000/svg" xml:space="preserve"><tspan x="94.20000457763672" y="81.40000001191947" textLength="79.5875015258789" style="fill:rgb(255, 255, 255);font-family:Arial;font-size:18pt;font-weight:bold;">Tourist</tspan></text></g><g transform="translate(852.90,587.00)" id="shape4"><path fill="#2b3601" d="M268,150L268,0L0,0L0,150L268,150Z" stroke="#cae67d" stroke-width="2"/><text xmlns="http://www.w3.org/2000/svg" xml:space="preserve"><tspan x="39.23749923706055" y="81.40000001191947" textLength="189.5250062942505" style="fill:rgb(255, 255, 255);font-family:Arial;font-size:18pt;font-weight:bold;">Service Provider</tspan></text></g><g transform="translate(23.90,587.00)" id="shape5"><path fill="#2b3601" d="M232,139L232,0L0,0L0,139L232,139Z" stroke="#cae67d" stroke-width="2"/><text xmlns="http://www.w3.org/2000/svg" xml:space="preserve"><tspan x="22.17500114440918" y="61.50000001191802" textLength="194.3250036239624" style="fill:rgb(255, 255, 255);font-family:Arial;font-size:18pt;font-weight:bold;">Admin / Tourism </tspan><tspan x="45.28750228881836" y="90.30000038146682" textLength="141.41250228881836" style="fill:rgb(255, 255, 255);font-family:Arial;font-size:18pt;font-weight:bold;">Deptartment</tspan></text></g><g transform="translate(852.90,108.10)" id="shape6"><path stroke="#b9df10" stroke-width="2" d="M0,0L-236.1,151.3" fill="none"/><path stroke-linecap="round" stroke-width="1" fill="#b9df10" stroke="#b9df10" d="M-231.6,158.4L-249.6,159.9L-240.7,144.1L-231.6,158.4Z"/></g><g transform="translate(924.99,169.00)" id="shape7"><path stroke="#b9df10" stroke-width="2" d="M0,0L-249.5,150.7" fill="none"/><path stroke-linecap="round" stroke-width="1" fill="#b9df10" stroke="#b9df10" d="M-245.1,158L-263.2,159L-253.9,143.5L-245.1,158Z"/></g><g transform="translate(852.90,145.60)" id="shape8"><path stroke="#b9df10" stroke-width="2" d="M-14.3,9.1L-221.2,142.2" fill="none"/><path stroke-linecap="round" stroke-width="1" fill="#b9df10" stroke="#b9df10" d="M-18.9,2L-0.9,0.5L-9.7,16.3L-18.9,2Z"/></g><g transform="translate(994.94,169.00)" id="shape9"><path stroke="#b9df10" stroke-width="2" d="M-14.7,8.5L-325.7,189.2" fill="none"/><path stroke-linecap="round" stroke-width="1" fill="#b9df10" stroke="#b9df10" d="M-19,1.1L-0.9,0.5L-10.5,15.8L-19,1.1Z"/></g><g transform="translate(1120.90,94.00)" id="shape10"><path stroke="#b9df10" stroke-width="6.666666666667" d="" fill="none"/></g><g transform="translate(1082.04,587.00)" id="shape11"><path stroke="#b9df10" stroke-width="2" d="M0,0L-400.3,-174.8" fill="none"/><path stroke-linecap="round" stroke-width="1" fill="#b9df10" stroke="#b9df10" d="M-403.7,-167.1L-414.9,-181.2L-396.9,-182.6L-403.7,-167.1Z"/></g><g transform="translate(963.85,587.00)" id="shape12"><path stroke="#b9df10" stroke-width="2" d="M-15.6,-6.8L-319.4,-139.3" fill="none"/><path stroke-linecap="round" stroke-width="1" fill="#b9df10" stroke="#b9df10" d="M-12.2,-14.6L-1,-0.4L-19,0.9L-12.2,-14.6Z"/></g><g transform="translate(852.90,594.95)" id="shape13"><path stroke="#b9df10" stroke-width="2" d="M0,0L-225.5,-112.1" fill="none"/><path stroke-linecap="round" stroke-width="1" fill="#b9df10" stroke="#b9df10" d="M-229.3,-104.5L-239.8,-119.2L-221.7,-119.7L-229.3,-104.5Z"/></g><g transform="translate(852.90,651.35)" id="shape14"><path stroke="#b9df10" stroke-width="2" d="M-15,-8.1L-299,-160.4" fill="none"/><path stroke-linecap="round" stroke-width="1" fill="#b9df10" stroke="#b9df10" d="M-11,-15.5L-0.9,-0.5L-19,-0.6L-11,-15.5Z"/></g><g transform="translate(178.40,587.00)" id="shape15"><path stroke="#b9df10" stroke-width="2" d="M0,0L248,-176.7" fill="none"/><path stroke-linecap="round" stroke-width="1" fill="#b9df10" stroke="#b9df10" d="M243.1,-183.6L261,-186L253,-169.8L243.1,-183.6Z"/></g><g transform="translate(511.04,482.87)" id="shape16"><path stroke="#b9df10" stroke-width="2" d="M0,0L-241.4,173.6" fill="none"/><path stroke-linecap="round" stroke-width="1" fill="#b9df10" stroke="#b9df10" d="M-236.5,180.5L-254.4,182.9L-246.4,166.7L-236.5,180.5Z"/></g><g transform="translate(463.66,448.20)" id="shape17"><path stroke="#b9df10" stroke-width="2" d="M0,0L-193.9,129.3" fill="none"/><path stroke-linecap="round" stroke-width="1" fill="#b9df10" stroke="#b9df10" d="M-189.2,136.4L-207.2,138.2L-198.6,122.3L-189.2,136.4Z"/></g><g transform="translate(467.24,296.64)" id="shape18"><path stroke="#b9df10" stroke-width="2" d="M0,0L-196.9,-118.9" fill="none"/><path stroke-linecap="round" stroke-width="1" fill="#b9df10" stroke="#b9df10" d="M-201.3,-111.7L-210.5,-127.2L-192.5,-126.2L-201.3,-111.7Z"/></g><g transform="translate(163.65,169.00)" id="shape19"><path stroke="#b9df10" stroke-width="2" d="M0,0L264.4,162.3" fill="none"/><path stroke-linecap="round" stroke-width="1" fill="#b9df10" stroke="#b9df10" d="M268.8,155.1L278,170.7L259.9,169.5L268.8,155.1Z"/></g><g transform="translate(255.90,94.00)" id="shape20"><path stroke="#b9df10" stroke-width="2" d="M0,0L251.1,159.4" fill="none"/><path stroke-linecap="round" stroke-width="1" fill="#b9df10" stroke="#b9df10" d="M255.7,152.3L264.6,168L246.6,166.6L255.7,152.3Z"/></g><g transform="matrix(0.82,-0.57,0.57,0.82,626.7,209.9)" id="shape21"><text xmlns="http://www.w3.org/2000/svg" xml:space="preserve"><tspan x="19.425000190734863" y="27.806250000001455" textLength="141.1500015258789" style="fill:rgb(255, 255, 255);font-family:Arial;font-size:14pt;font-weight:bold;">Register / Login</tspan></text></g><g transform="matrix(0.87,-0.50,0.50,0.87,700.8,258.2)" id="shape22"><text xmlns="http://www.w3.org/2000/svg" xml:space="preserve"><tspan x="22.80000114440918" y="31.306250000001455" textLength="120.40000104904175" style="fill:rgb(255, 255, 255);font-family:Arial;font-size:14pt;font-weight:bold;">Live Location</tspan></text></g><g transform="matrix(0.85,-0.53,0.53,0.85,703.1,300.6)" id="shape23"><text xmlns="http://www.w3.org/2000/svg" xml:space="preserve"><tspan x="18.037500381469727" y="27.806250000001455" textLength="152.9125018119812" style="fill:rgb(255, 255, 255);font-family:Arial;font-size:14pt;font-weight:bold;">Alerts / Warnings</tspan></text></g><g transform="matrix(0.82,-0.57,0.57,0.82,653.9,232.6)" id="shape24"><text xmlns="http://www.w3.org/2000/svg" xml:space="preserve"><tspan x="14.949999809265137" y="27.806250000001455" textLength="167.1000018119812" style="fill:rgb(255, 255, 255);font-family:Arial;font-size:14pt;font-weight:bold;">Recommendations</tspan></text></g><g transform="matrix(0.91,0.42,-0.42,0.91,676.5,356.0)" id="shape25"><text xmlns="http://www.w3.org/2000/svg" xml:space="preserve"><tspan x="68.30624389648438" y="29.531000000002678" textLength="132.89999866485596" style="fill:rgb(255, 255, 255);font-family:Arial;font-size:14pt;font-weight:bold;">Service Details</tspan><tspan x="42.36874008178711" y="90.30600152588158" textLength="184.7750005722046" style="fill:rgb(255, 255, 255);font-family:Arial;font-size:14pt;font-weight:bold;">Verification Request </tspan><tspan x="3.2562408447265625" y="128.69349847412377" textLength="264.7000002861023" style="fill:rgb(255, 255, 255);font-family:Arial;font-size:14pt;font-weight:bold;">Service Registration / Update </tspan><tspan x="44.456241607666016" y="167.0810030517605" textLength="180.60000133514404" style="fill:rgb(255, 255, 255);font-family:Arial;font-size:14pt;font-weight:bold;">Approval / Rejection</tspan></text></g><g transform="matrix(0.82,-0.57,0.57,0.82,155.5,529.7)" id="shape26"><text xmlns="http://www.w3.org/2000/svg" xml:space="preserve"><tspan x="9.787499904632568" y="45.53100000000268" textLength="230.4250020980835" style="fill:rgb(255, 255, 255);font-family:Arial;font-size:14pt;font-weight:bold;">Approvals / Zone Updates</tspan><tspan x="122.4000015258789" y="67.91850076294213" textLength="5.1875" style="fill:rgb(255, 255, 255);font-family:Arial;font-size:14pt;font-weight:bold;"> </tspan><tspan x="33.13750076293945" y="90.30600152588158" textLength="183.7250018119812" style="fill:rgb(255, 255, 255);font-family:Arial;font-size:14pt;font-weight:bold;">Dashboard / Reports</tspan><tspan x="122.4000015258789" y="128.69349847412377" textLength="5.1875" style="fill:rgb(255, 255, 255);font-family:Arial;font-size:14pt;font-weight:bold;"> </tspan><tspan x="20" y="151.0810030517605" textLength="209.98750162124634" style="fill:rgb(255, 255, 255);font-family:Arial;font-size:14pt;font-weight:bold;">Monitoring Data / Alerts</tspan></text></g><g transform="matrix(0.87,0.50,-0.50,0.87,314.1,94.1)" id="shape27"><text xmlns="http://www.w3.org/2000/svg" xml:space="preserve"><tspan x="40.72500228881836" y="26.224999999998545" textLength="151.55000019073486" style="fill:rgb(255, 255, 255);font-family:Arial;font-size:14pt;font-weight:bold;">Response Status</tspan><tspan x="41.587501525878906" y="64.612500762938" textLength="155.01249980926514" style="fill:rgb(255, 255, 255);font-family:Arial;font-size:14pt;font-weight:bold;">Panic Alert / Live </tspan><tspan x="77.57500457763672" y="87.00000152587745" textLength="77.83750104904175" style="fill:rgb(255, 255, 255);font-family:Arial;font-size:14pt;font-weight:bold;">Location</tspan><tspan x="60.45000076293945" y="125.38749847411964" textLength="112.08750104904175" style="fill:rgb(255, 255, 255);font-family:Arial;font-size:14pt;font-weight:bold;">Field Update</tspan></text></g><g transform="translate(1120.90,94.00)" id="shape28"><path stroke="#b9df10" stroke-width="2" d="" fill="none"/></g></g></svg>
